<svg width="68" height="49" viewBox="0 0 68 49" fill="none" xmlns="http://www.w3.org/2000/svg">
<path d="M66.52 7.86109C65.74 4.93109 64.03 2.45109 61.1 1.67109C55.79 0.251094 34 0.121094 34 0.121094C34 0.121094 12.21 0.251094 6.9 1.67109C3.97 2.45109 2.27 4.93109 1.48 7.86109C0.0600001 13.1711 0 24.1211 0 24.1211C0 24.1211 0.0600001 35.0711 1.48 40.3811C2.26 43.3111 3.97 45.7911 6.9 46.5711C12.21 47.9911 34 48.1211 34 48.1211C34 48.1211 55.79 47.9911 61.1 46.5711C64.03 45.7911 65.74 43.3111 66.52 40.3811C67.94 35.0711 68 24.1211 68 24.1211C68 24.1211 67.94 13.1711 66.52 7.86109Z" fill="#FF0000"/>
<path d="M45 24.1211L27 14.1211V34.1211" fill="white"/>
</svg>
