<svg width="60" height="60" viewBox="0 0 60 60" fill="none" xmlns="http://www.w3.org/2000/svg">
<circle cx="30" cy="30" r="30" fill="#FA4951"/>
<path d="M44.7083 37.6729C44.7083 37.5483 44.5838 37.5483 44.5838 37.4238C44.0856 36.4275 42.9648 35.1822 41.4704 33.8123C40.7232 33.1897 40.3496 32.6915 40.1005 32.4424C39.7269 31.9443 39.7269 31.5707 39.8515 31.0726C39.976 30.699 40.4741 30.0763 41.3458 28.9555C41.844 28.3328 42.093 27.9592 42.4667 27.5856C44.3347 25.0949 45.2064 23.476 44.9573 22.7288L44.8328 22.6042C44.7083 22.4797 44.5837 22.3552 44.3347 22.3552C44.0856 22.2306 43.712 22.2306 43.3384 22.3552H38.6061C38.4816 22.3552 38.4816 22.3552 38.2325 22.3552C38.108 22.3552 37.9834 22.3552 37.9834 22.3552H37.8589H37.7344L37.6098 22.4797C37.4853 22.6042 37.4853 22.6042 37.4853 22.7288C36.9871 24.0986 36.3645 25.2194 35.7418 26.4648C35.3682 27.0875 34.9946 27.7101 34.621 28.2083C34.2474 28.7064 33.9983 29.08 33.7492 29.3291C33.5002 29.5781 33.2511 29.7027 33.1266 29.9518C33.002 30.0763 32.753 30.2008 32.753 30.0763C32.6285 30.0763 32.5039 30.0763 32.5039 29.9518C32.3794 29.8272 32.2548 29.7027 32.1303 29.5781C32.0058 29.4536 32.0058 29.2045 31.8812 28.9555C31.8812 28.7064 31.8812 28.4573 31.8812 28.3328C31.8812 28.2083 31.8812 27.8347 31.8812 27.5856C31.8812 27.212 31.8812 26.9629 31.8812 26.8384C31.8812 26.4648 31.8812 25.9667 31.8812 25.4685C31.8812 24.9704 31.8812 24.5968 31.8812 24.3477C31.8812 24.0986 31.8812 23.725 31.8812 23.476C31.8812 23.1024 31.8812 22.8533 31.8812 22.7288C31.8812 22.6042 31.7567 22.3552 31.7567 22.2306C31.6322 22.1061 31.5076 21.9816 31.3831 21.857C31.2586 21.7325 31.0095 21.7325 30.885 21.608C30.2623 21.4834 29.5151 21.3589 28.6434 21.3589C26.6508 21.3589 25.2809 21.4834 24.7828 21.7325C24.5337 21.857 24.2847 21.9816 24.1601 22.2306C23.9111 22.4797 23.911 22.6042 24.0356 22.6042C24.6582 22.7288 25.1564 22.9778 25.4055 23.3514L25.53 23.6005C25.6545 23.725 25.6545 23.9741 25.7791 24.3477C25.9036 24.7213 25.9036 25.0949 25.9036 25.593C25.9036 26.3403 25.9036 27.0875 25.9036 27.5856C25.9036 28.2083 25.7791 28.5819 25.7791 28.9555C25.7791 29.3291 25.6545 29.5782 25.53 29.7027C25.4055 29.9518 25.4055 30.0763 25.2809 30.0763C25.2809 30.0763 25.2809 30.2008 25.1564 30.2008C25.0318 30.2008 24.9073 30.3254 24.6582 30.3254C24.5337 30.3254 24.2847 30.2008 24.1601 30.0763C23.9111 29.9518 23.662 29.7027 23.5374 29.4536C23.2884 29.2046 23.0393 28.8309 22.7902 28.3328C22.5412 27.8347 22.1675 27.3365 21.9185 26.5893L21.6694 26.0912C21.5449 25.8421 21.2958 25.344 21.0468 24.7213C20.7977 24.0986 20.5486 23.6005 20.2995 22.9778C20.175 22.7288 20.0505 22.6042 19.926 22.4797H19.8014C19.8014 22.4797 19.6769 22.3552 19.5523 22.3552C19.4278 22.3552 19.3033 22.2306 19.1787 22.2306H14.6955C14.1974 22.2306 13.9483 22.3552 13.8238 22.4797L13.6992 22.6042C13.6992 22.6042 13.6992 22.7288 13.6992 22.8533C13.6992 22.9778 13.6992 23.1024 13.8238 23.3514C14.4464 24.8458 15.1936 26.3403 15.9408 27.8347C16.688 29.2045 17.4353 30.4499 17.9334 31.3216C18.5561 32.1934 19.0542 33.0651 19.6769 33.8123C20.2995 34.5595 20.6731 35.0577 20.7977 35.3067C21.0467 35.5558 21.1713 35.6803 21.2958 35.8049L21.6694 36.1785C21.9185 36.4275 22.2921 36.8011 22.7902 37.1748C23.2884 37.5484 23.911 37.9219 24.5337 38.2956C25.1564 38.6692 25.9036 38.9182 26.6508 39.1673C27.5225 39.4164 28.2697 39.5409 29.017 39.4164H30.885C31.2586 39.4164 31.5077 39.2918 31.7567 39.0428L31.8812 38.9182C31.8812 38.7937 32.0058 38.7937 32.0058 38.6692C32.0058 38.5446 32.0058 38.4201 32.0058 38.171C32.0058 37.6729 32.0058 37.2993 32.1303 36.9257C32.2548 36.5521 32.2549 36.303 32.3794 36.0539C32.5039 35.8049 32.6285 35.6803 32.753 35.5558C32.8775 35.4313 33.0021 35.3067 33.0021 35.3067H33.1266C33.3756 35.1822 33.7493 35.3067 33.9983 35.5558C34.3719 35.8049 34.7455 36.1785 34.9946 36.5521C35.2437 36.9257 35.6173 37.2993 36.1154 37.7974C36.6136 38.2956 36.9872 38.6692 37.2362 38.7937L37.6098 39.0428C37.8589 39.1673 38.108 39.2918 38.4816 39.4164C38.8552 39.5409 39.1042 39.5409 39.3533 39.5409L43.5875 39.4164C43.9611 39.4164 44.3347 39.2918 44.5838 39.1673C44.8328 39.0428 44.9573 38.9182 44.9573 38.6692C44.9573 38.5446 44.9573 38.2956 44.9573 38.171C44.7083 37.922 44.7083 37.7974 44.7083 37.6729Z" fill="white"/>
</svg>
