<svg width="47" height="47" viewBox="0 0 47 47" fill="none" xmlns="http://www.w3.org/2000/svg">
<path d="M28.999 29.1392C28.999 29.1392 29.3787 28.7594 30.1383 27.9999C30.8978 27.2403 31.2776 25.787 31.2776 23.6401C31.2776 21.4931 30.5181 19.66 28.999 18.1409C27.4799 16.6218 25.6468 15.8623 23.4998 15.8623C21.3528 15.8623 19.5198 16.6218 18.0007 18.1409C16.4816 19.66 15.7221 21.4931 15.7221 23.6401C15.7221 25.787 16.4816 27.6201 18.0007 29.1392C19.5198 30.6583 21.3528 31.4178 23.4998 31.4178C25.6468 31.4178 27.4799 30.6583 28.999 29.1392ZM46.8332 20.3284V27.0732C46.8332 27.3163 46.7521 27.5492 46.5901 27.772C46.4281 27.9948 46.2255 28.1265 45.9825 28.167L40.3618 29.0177C39.977 30.1114 39.582 31.033 39.1769 31.7824C39.8858 32.7951 40.9695 34.1927 42.4278 35.9751C42.6303 36.2182 42.7316 36.4714 42.7316 36.7347C42.7316 36.998 42.6405 37.2309 42.4582 37.4335C41.9113 38.1829 40.9087 39.2766 39.4504 40.7147C37.992 42.1528 37.0401 42.8718 36.5945 42.8718C36.3514 42.8718 36.0881 42.7807 35.8045 42.5984L31.6118 39.3171C30.7206 39.783 29.799 40.1678 28.8471 40.4717C28.523 43.2263 28.2293 45.11 27.966 46.1227C27.8242 46.6898 27.4596 46.9734 26.8722 46.9734H20.1274C19.8439 46.9734 19.5958 46.8873 19.3831 46.7151C19.1704 46.543 19.0539 46.3252 19.0337 46.0619L18.183 40.4717C17.1905 40.1476 16.2791 39.7729 15.4486 39.3475L11.1648 42.5984C10.9622 42.7807 10.709 42.8718 10.4052 42.8718C10.1217 42.8718 9.86847 42.7604 9.64567 42.5376C7.09359 40.2286 5.42258 38.5272 4.63265 37.4335C4.49087 37.2309 4.41998 36.998 4.41998 36.7347C4.41998 36.4916 4.50099 36.2587 4.66303 36.0359C4.96685 35.6105 5.48334 34.9371 6.21251 34.0155C6.94168 33.0939 7.48855 32.3799 7.85314 31.8736C7.30626 30.8608 6.89104 29.8582 6.60748 28.8658L1.04758 28.0454C0.78427 28.0049 0.571596 27.8783 0.409559 27.6657C0.247522 27.453 0.166504 27.215 0.166504 26.9517V20.2069C0.166504 19.9638 0.247522 19.7309 0.409559 19.5081C0.571596 19.2853 0.764015 19.1537 0.986816 19.1131L6.63786 18.2625C6.92142 17.3307 7.31639 16.399 7.82275 15.4673C7.01257 14.3128 5.92895 12.9152 4.57189 11.2746C4.36934 11.0316 4.26807 10.7885 4.26807 10.5454C4.26807 10.3429 4.35921 10.11 4.5415 9.84666C5.06812 9.11749 6.06566 8.0288 7.53412 6.5806C9.00259 5.13239 9.95962 4.40829 10.4052 4.40829C10.6685 4.40829 10.9318 4.50956 11.1951 4.71211L15.3879 7.96297C16.2791 7.49712 17.2006 7.11228 18.1526 6.80846C18.4767 4.05383 18.7704 2.17015 19.0337 1.15742C19.1755 0.59029 19.5401 0.306725 20.1274 0.306725H26.8722C27.1558 0.306725 27.4039 0.392807 27.6166 0.564972C27.8293 0.737137 27.9457 0.954872 27.966 1.21819L28.8167 6.80846C29.8092 7.13253 30.7206 7.50724 31.5511 7.93259L35.8653 4.68172C36.0476 4.49944 36.2906 4.40829 36.5945 4.40829C36.8578 4.40829 37.1109 4.50956 37.354 4.71211C39.9668 7.12241 41.6379 8.84405 42.367 9.87704C42.5088 10.0391 42.5797 10.2619 42.5797 10.5454C42.5797 10.7885 42.4987 11.0214 42.3366 11.2442C42.0328 11.6696 41.5163 12.343 40.7872 13.2646C40.058 14.1862 39.5111 14.9002 39.1465 15.4066C39.6732 16.4193 40.0884 17.4118 40.3922 18.384L45.9521 19.2347C46.2154 19.2752 46.4281 19.4018 46.5901 19.6145C46.7521 19.8271 46.8332 20.0651 46.8332 20.3284Z" fill="#333333"/>
</svg>
