<svg width="19" height="19" viewBox="0 0 19 19" fill="none" xmlns="http://www.w3.org/2000/svg">
<path d="M16.7235 16.0738V8.11721H15.0659C15.2296 8.63292 15.3115 9.16908 15.3115 9.72572C15.3115 10.7571 15.0495 11.7087 14.5256 12.5805C14.0017 13.4523 13.2896 14.1419 12.3892 14.6495C11.4887 15.157 10.5064 15.4107 9.44228 15.4107C7.82968 15.4107 6.45038 14.8561 5.30438 13.747C4.15837 12.6378 3.58536 11.2974 3.58536 9.72572C3.58536 9.16908 3.66722 8.63292 3.83094 8.11721H2.09965V16.0738C2.09965 16.2866 2.17127 16.4646 2.31452 16.6079C2.45778 16.7511 2.63582 16.8228 2.84865 16.8228H15.9745C16.1792 16.8228 16.3552 16.7511 16.5025 16.6079C16.6498 16.4646 16.7235 16.2866 16.7235 16.0738ZM12.1252 12.1262C12.1252 12.1262 12.3104 11.9471 12.6808 11.589C13.0512 11.2309 13.2364 10.5443 13.2364 9.52926C13.2364 8.51422 12.866 7.64858 12.1252 6.93232C11.3844 6.21607 10.4901 5.85794 9.44228 5.85794C8.40269 5.85794 7.51249 6.21607 6.77167 6.93232C6.03086 7.64858 5.66046 8.51422 5.66046 9.52926C5.66046 10.5443 6.03086 11.4099 6.77167 12.1262C7.51249 12.8424 8.40269 13.2006 9.44228 13.2006C10.4901 13.2006 11.3844 12.8424 12.1252 12.1262ZM16.7235 5.10894V3.08297C16.7235 2.85377 16.6417 2.65526 16.4779 2.48745C16.3142 2.31964 16.1137 2.23574 15.8763 2.23574H13.7398C13.5024 2.23574 13.3019 2.31964 13.1382 2.48745C12.9744 2.65526 12.8926 2.85377 12.8926 3.08297V5.10894C12.8926 5.34633 12.9744 5.54688 13.1382 5.7106C13.3019 5.87431 13.5024 5.95617 13.7398 5.95617H15.8763C16.1137 5.95617 16.3142 5.87431 16.4779 5.7106C16.6417 5.54688 16.7235 5.34633 16.7235 5.10894ZM18.86 2.55499V16.5772C18.86 17.2402 18.6226 17.8092 18.1478 18.2839C17.6731 18.7587 17.1042 18.9961 16.4411 18.9961H2.41889C1.75585 18.9961 1.18694 18.7587 0.712161 18.2839C0.237387 17.8092 0 17.2402 0 16.5772V2.55499C0 1.89194 0.237387 1.32303 0.712161 0.848255C1.18694 0.37348 1.75585 0.136093 2.41889 0.136093H16.4411C17.1042 0.136093 17.6731 0.37348 18.1478 0.848255C18.6226 1.32303 18.86 1.89194 18.86 2.55499Z" fill="#F1F1F1"/>
</svg>
