<svg width="14" height="23" viewBox="0 0 14 23" fill="none" xmlns="http://www.w3.org/2000/svg">
<path d="M10.5554 9.72816C10.5554 9.72816 10.2831 10.0004 9.73867 10.5449C9.1942 11.0893 8.15234 11.3616 6.61309 11.3616C5.07384 11.3616 3.75975 10.8171 2.67081 9.72816C1.58187 8.63922 1.0374 7.32922 1.0374 5.79816C1.0374 4.25891 1.58187 2.94481 2.67081 1.85588C3.75975 0.766939 5.07384 0.222469 6.61309 0.222469C8.15234 0.222469 9.46644 0.766939 10.5554 1.85588C11.6443 2.94481 12.1888 4.25891 12.1888 5.79816C12.1888 7.32922 11.6443 8.63922 10.5554 9.72816ZM8.54739 3.85158C8.54739 3.85158 8.41332 3.71751 8.14518 3.44937C7.87704 3.18123 7.36634 3.04716 6.61309 3.04716C5.85984 3.04716 5.21508 3.3153 4.67879 3.85158C4.14251 4.38786 3.87437 5.03672 3.87437 5.79816C3.87437 6.55141 4.14251 7.19617 4.67879 7.73245C5.21508 8.26873 5.85984 8.53688 6.61309 8.53688C7.36634 8.53688 8.01111 8.26873 8.54739 7.73245C9.08367 7.19617 9.35181 6.55141 9.35181 5.79816C9.35181 5.03672 9.08367 4.38786 8.54739 3.85158ZM13.0362 12.037C13.1426 12.2581 13.204 12.4607 13.2204 12.645C13.2368 12.8292 13.2184 12.995 13.1651 13.1423C13.1119 13.2897 13.0034 13.4473 12.8397 13.6152C12.6759 13.783 12.502 13.9345 12.3177 14.0696C12.1335 14.2047 11.8817 14.3746 11.5624 14.5793C10.6209 15.1769 9.33134 15.5618 7.69384 15.7337L8.59037 16.6179L11.8695 19.897C12.1151 20.1508 12.2379 20.4538 12.2379 20.8058C12.2379 21.1579 12.1151 21.4568 11.8695 21.7024L11.7221 21.862C11.4683 22.1077 11.1653 22.2305 10.8133 22.2305C10.4612 22.2305 10.1583 22.1077 9.90447 21.862C9.3559 21.3053 8.26287 20.2082 6.62537 18.5707L3.34628 21.862C3.09247 22.1077 2.78953 22.2305 2.43747 22.2305C2.0854 22.2305 1.78656 22.1077 1.54094 21.862L1.39356 21.7024C1.13975 21.4568 1.01284 21.1579 1.01284 20.8058C1.01284 20.4538 1.13975 20.1508 1.39356 19.897L4.67265 16.6179L5.5569 15.7337C3.89484 15.5618 2.59712 15.1769 1.66375 14.5793C1.34444 14.3746 1.09267 14.2047 0.908451 14.0696C0.724233 13.9345 0.550248 13.783 0.386498 13.6152C0.222748 13.4473 0.114264 13.2897 0.061045 13.1423C0.00782628 12.995 -0.0105956 12.8292 0.00577941 12.645C0.0221544 12.4607 0.0835607 12.2581 0.189998 12.037C0.271873 11.8733 0.386498 11.73 0.533873 11.6072C0.681248 11.4844 0.853186 11.3943 1.04969 11.337C1.24619 11.2797 1.47544 11.2879 1.73744 11.3616C1.99944 11.4353 2.26553 11.5785 2.53572 11.7914C2.57665 11.8242 2.63806 11.8692 2.71994 11.9265C2.80181 11.9838 2.97784 12.0841 3.24803 12.2274C3.51822 12.3707 3.80069 12.4955 4.09544 12.602C4.39019 12.7084 4.76681 12.8067 5.22531 12.8967C5.68381 12.9868 6.1464 13.0318 6.61309 13.0318C7.35815 13.0318 8.07047 12.9274 8.75003 12.7186C9.42959 12.5099 9.92084 12.3031 10.2238 12.0984L10.6905 11.7914C10.9607 11.5785 11.2267 11.4353 11.4887 11.3616C11.7507 11.2879 11.98 11.2797 12.1765 11.337C12.373 11.3943 12.5449 11.4844 12.6923 11.6072C12.8397 11.73 12.9543 11.8733 13.0362 12.037Z" fill="#F1F1F1"/>
</svg>
