<svg width="36" height="37" viewBox="0 0 36 37" fill="none" xmlns="http://www.w3.org/2000/svg">
<path d="M11.6516 27.5494C11.6516 27.5494 11.7652 27.4414 11.9925 27.2255C12.2197 27.0096 12.3333 26.6062 12.3333 26.0153C12.3333 25.4244 12.1061 24.913 11.6516 24.4812C11.1971 24.0494 10.659 23.8335 10.037 23.8335C9.41512 23.8335 8.87693 24.0494 8.42245 24.4812C7.96798 24.913 7.74074 25.4244 7.74074 26.0153C7.74074 26.6062 7.96798 27.1175 8.42245 27.5494C8.87693 27.9812 9.41512 28.1971 10.037 28.1971C10.659 28.1971 11.1971 27.9812 11.6516 27.5494ZM5.44444 17.288H12.3333V12.9244H9.49884C9.34336 12.9244 9.21181 12.9755 9.10417 13.0778L5.6059 16.4016C5.49826 16.5039 5.44444 16.6289 5.44444 16.7766V17.288ZM27.7257 27.5494C27.7257 27.5494 27.8393 27.4414 28.0666 27.2255C28.2938 27.0096 28.4074 26.6062 28.4074 26.0153C28.4074 25.4244 28.1802 24.913 27.7257 24.4812C27.2712 24.0494 26.733 23.8335 26.1111 23.8335C25.4892 23.8335 24.951 24.0494 24.4965 24.4812C24.0421 24.913 23.8148 25.4244 23.8148 26.0153C23.8148 26.6062 24.0421 27.1175 24.4965 27.5494C24.951 27.9812 25.4892 28.1971 26.1111 28.1971C26.733 28.1971 27.2712 27.9812 27.7257 27.5494ZM33 7.46981V24.9244C33 25.0948 32.9761 25.2454 32.9282 25.3761C32.8804 25.5067 32.7997 25.6119 32.6861 25.6914C32.5724 25.771 32.4738 25.8363 32.39 25.8874C32.3063 25.9386 32.1658 25.9727 31.9685 25.9897C31.7711 26.0067 31.6366 26.0181 31.5648 26.0238C31.4931 26.0295 31.3406 26.0295 31.1073 26.0238C30.8741 26.0181 30.7396 26.0153 30.7037 26.0153C30.7037 27.2198 30.2552 28.2482 29.3582 29.1005C28.4612 29.9528 27.3789 30.3789 26.1111 30.3789C24.8434 30.3789 23.761 29.9528 22.864 29.1005C21.967 28.2482 21.5185 27.2198 21.5185 26.0153H14.6296C14.6296 27.2198 14.1811 28.2482 13.2841 29.1005C12.3872 29.9528 11.3048 30.3789 10.037 30.3789C8.76929 30.3789 7.68692 29.9528 6.78993 29.1005C5.89294 28.2482 5.44444 27.2198 5.44444 26.0153H4.2963C4.26042 26.0153 4.12587 26.0181 3.89265 26.0238C3.65943 26.0295 3.50694 26.0295 3.43519 26.0238C3.36343 26.0181 3.22888 26.0067 3.03154 25.9897C2.8342 25.9727 2.69367 25.9386 2.60995 25.8874C2.52623 25.8363 2.42757 25.771 2.31395 25.6914C2.20033 25.6119 2.1196 25.5067 2.07176 25.3761C2.02392 25.2454 2 25.0948 2 24.9244C2 24.6289 2.11362 24.3732 2.34086 24.1573C2.56809 23.9414 2.83719 23.8335 3.14815 23.8335V18.3789C3.14815 18.288 3.14516 18.0891 3.13918 17.7823C3.1332 17.4755 3.1332 17.2596 3.13918 17.1346C3.14516 17.0096 3.16011 16.8136 3.18403 16.5465C3.20795 16.2795 3.24682 16.0692 3.30064 15.9158C3.35446 15.7624 3.43818 15.5891 3.55179 15.396C3.66541 15.2028 3.79996 15.0323 3.95544 14.8846L7.50752 11.5096C7.73476 11.2937 8.03675 11.1119 8.41348 10.9641C8.79022 10.8164 9.14005 10.7425 9.46296 10.7425H12.3333V7.46981C12.3333 7.17436 12.447 6.91868 12.6742 6.70277C12.9014 6.48686 13.1705 6.37891 13.4815 6.37891H31.8519C32.1628 6.37891 32.4319 6.48686 32.6591 6.70277C32.8864 6.91868 33 7.17436 33 7.46981Z" fill="#333333"/>
</svg>
