<svg width="28" height="25" viewBox="0 0 28 25" fill="none" xmlns="http://www.w3.org/2000/svg">
<path d="M10 4.23633H18V2.23633H10V4.23633ZM28 14.2363V21.7363C28 22.4238 27.7552 23.0124 27.2656 23.502C26.776 23.9915 26.1875 24.2363 25.5 24.2363H2.5C1.8125 24.2363 1.22396 23.9915 0.734375 23.502C0.244792 23.0124 0 22.4238 0 21.7363V14.2363H10.5V16.7363C10.5 17.0072 10.599 17.2415 10.7969 17.4395C10.9948 17.6374 11.2292 17.7363 11.5 17.7363H16.5C16.7708 17.7363 17.0052 17.6374 17.2031 17.4395C17.401 17.2415 17.5 17.0072 17.5 16.7363V14.2363H28ZM16 14.2363V16.2363H12V14.2363H16ZM28 6.73633V12.7363H0V6.73633C0 6.04883 0.244792 5.46028 0.734375 4.9707C1.22396 4.48112 1.8125 4.23633 2.5 4.23633H8V1.73633C8 1.31966 8.14583 0.965492 8.4375 0.673826C8.72917 0.382158 9.08333 0.236324 9.5 0.236324H18.5C18.9167 0.236324 19.2708 0.382158 19.5625 0.673826C19.8542 0.965492 20 1.31966 20 1.73633V4.23633H25.5C26.1875 4.23633 26.776 4.48112 27.2656 4.9707C27.7552 5.46028 28 6.04883 28 6.73633Z" fill="#333333"/>
</svg>
