<svg width="23" height="27" viewBox="0 0 23 27" fill="none" xmlns="http://www.w3.org/2000/svg">
<path d="M23 21.9948C23 23.349 22.6025 24.4182 21.8075 25.2025C21.0125 25.9868 19.9562 26.3789 18.6385 26.3789H4.36151C3.0438 26.3789 1.98745 25.9868 1.19247 25.2025C0.39749 24.4182 0 23.349 0 21.9948C0 21.3967 0.0190578 20.8127 0.0571733 20.2428C0.0952888 19.673 0.17152 19.0579 0.285866 18.3978C0.400213 17.7376 0.544508 17.1254 0.71875 16.5612C0.892992 15.997 1.12713 15.4468 1.42116 14.9108C1.7152 14.3748 2.05279 13.9178 2.43395 13.5397C2.8151 13.1617 3.28066 12.8598 3.83061 12.6341C4.38056 12.4084 4.98769 12.2956 5.65199 12.2956C5.75 12.2956 5.97869 12.4169 6.33807 12.6595C6.69744 12.9021 7.1031 13.173 7.55504 13.472C8.00698 13.7711 8.59505 14.0419 9.31925 14.2845C10.0434 14.5271 10.7704 14.6484 11.5 14.6484C12.2296 14.6484 12.9566 14.5271 13.6808 14.2845C14.4049 14.0419 14.993 13.7711 15.445 13.472C15.8969 13.173 16.3026 12.9021 16.6619 12.6595C17.0213 12.4169 17.25 12.2956 17.348 12.2956C18.0123 12.2956 18.6194 12.4084 19.1694 12.6341C19.7193 12.8598 20.1849 13.1617 20.566 13.5397C20.9472 13.9178 21.2848 14.3748 21.5788 14.9108C21.8729 15.4468 22.107 15.997 22.2812 16.5612C22.4555 17.1254 22.5998 17.7376 22.7141 18.3978C22.8285 19.0579 22.9047 19.673 22.9428 20.2428C22.9809 20.8127 23 21.3967 23 21.9948ZM15.935 2.2832C15.935 2.2832 16.2413 2.60059 16.8539 3.23535C17.4664 3.87012 17.7727 5.08463 17.7727 6.87891C17.7727 8.67318 17.1602 10.2051 15.935 11.4746C14.7099 12.7441 13.2315 13.3789 11.5 13.3789C9.76847 13.3789 8.29013 12.7441 7.06499 11.4746C5.83984 10.2051 5.22727 8.67318 5.22727 6.87891C5.22727 5.08463 5.83984 3.55273 7.06499 2.2832C8.29013 1.01367 9.76847 0.378906 11.5 0.378906C13.2315 0.378906 14.7099 1.01367 15.935 2.2832Z" fill="#333333"/>
</svg>
