<svg width="30" height="31" viewBox="0 0 30 31" fill="none" xmlns="http://www.w3.org/2000/svg">
<path d="M6.80619 25.5044C6.80619 25.5044 6.86282 25.4478 6.97608 25.3345C7.08933 25.2213 7.14596 25.0097 7.14596 24.6997C7.14596 24.3897 7.03271 24.1215 6.80619 23.895C6.57968 23.6685 6.31144 23.5552 6.00147 23.5552C5.6915 23.5552 5.42326 23.6685 5.19675 23.895C4.97023 24.1215 4.85698 24.3897 4.85698 24.6997C4.85698 25.0097 4.97023 25.2779 5.19675 25.5044C5.42326 25.7309 5.6915 25.8442 6.00147 25.8442C6.31144 25.8442 6.57968 25.7309 6.80619 25.5044ZM18.6624 17.189L6.46642 29.385C6.02531 29.8261 5.48883 30.0466 4.85698 30.0466C4.23704 30.0466 3.6946 29.8261 3.22965 29.385L1.33408 27.4536C0.881055 27.0245 0.654541 26.488 0.654541 25.8442C0.654541 25.2123 0.881055 24.6699 1.33408 24.2169L13.5122 12.0387C13.9772 13.2071 14.6597 14.2413 15.5598 15.1414C16.4599 16.0415 17.4941 16.724 18.6624 17.189ZM30.0001 9.40998C30.0001 9.87494 29.863 10.5068 29.5888 11.3056C29.0284 12.9031 28.0479 14.1996 26.6471 15.195C25.2462 16.1905 23.7053 16.6882 22.0244 16.6882C19.8188 16.6882 17.9322 15.9044 16.3645 14.3367C14.7968 12.769 14.0129 10.8823 14.0129 8.67679C14.0129 6.47126 14.7968 4.58463 16.3645 3.01692C17.9322 1.4492 19.8188 0.66534 22.0244 0.66534C22.7158 0.66534 23.4401 0.763697 24.1971 0.960405C24.9542 1.15712 25.595 1.4343 26.1195 1.79195C26.3103 1.92309 26.4056 2.09 26.4056 2.29267C26.4056 2.49534 26.3103 2.66224 26.1195 2.79338L20.8799 5.81556V9.82129L24.3312 11.7347C24.3909 11.699 24.8618 11.4099 25.744 10.8674C26.6262 10.325 27.4339 9.84215 28.1671 9.41893C28.9003 8.9957 29.3205 8.78409 29.4278 8.78409C29.6066 8.78409 29.7467 8.8437 29.8481 8.96292C29.9494 9.08214 30.0001 9.23116 30.0001 9.40998Z" fill="#333333"/>
</svg>
