<svg width="29" height="29" viewBox="0 0 29 29" fill="none" xmlns="http://www.w3.org/2000/svg">
<path d="M7.04238 1.89641C7.04238 1.89641 7.58399 1.58035 8.66719 0.948217C9.7504 0.316092 11.5747 2.67029e-05 14.14 2.67029e-05C16.7053 2.67029e-05 19.0712 0.632154 21.2376 1.89641C23.404 3.16066 25.1194 4.876 26.3836 7.04241C27.6479 9.20883 28.28 11.5747 28.28 14.14C28.28 16.7054 27.6479 19.0712 26.3836 21.2376C25.1194 23.4041 23.404 25.1194 21.2376 26.3836C19.0712 27.6479 16.7053 28.28 14.14 28.28C11.5747 28.28 9.2088 27.6479 7.04238 26.3836C4.87597 25.1194 3.16063 23.4041 1.89638 21.2376C0.632127 19.0712 0 16.7054 0 14.14C0 11.5747 0.632127 9.20883 1.89638 7.04241C3.16063 4.876 4.87597 3.16066 7.04238 1.89641ZM19.1847 9.5924C19.1602 9.60467 19.1019 9.66298 19.0098 9.76731C18.9178 9.87164 18.8349 9.92994 18.7613 9.94221C18.7858 9.94221 18.8134 9.91153 18.8441 9.85016C18.8748 9.78879 18.9055 9.72128 18.9362 9.64763C18.9669 9.57399 18.9884 9.53103 19.0006 9.51875C19.0743 9.43283 19.2093 9.34077 19.4057 9.24258C19.5775 9.16893 19.8967 9.09529 20.3631 9.02164C20.7804 8.92345 21.0934 8.99096 21.3021 9.22417C21.2775 9.19962 21.3358 9.11984 21.477 8.98482C21.6181 8.8498 21.7071 8.77616 21.7439 8.76388C21.7808 8.73933 21.8728 8.71172 22.0201 8.68103C22.1674 8.65034 22.2595 8.60432 22.2963 8.54294L22.3331 8.13789C22.1858 8.15017 22.0784 8.10721 22.0109 8.00901C21.9434 7.91082 21.9035 7.78194 21.8912 7.62237C21.8912 7.64692 21.8544 7.69602 21.7808 7.76966C21.7808 7.68374 21.7531 7.63465 21.6979 7.62237C21.6427 7.6101 21.5721 7.61623 21.4862 7.64078C21.4003 7.66533 21.345 7.67147 21.3205 7.65919C21.1977 7.62237 21.1057 7.57634 21.0443 7.52111C20.9829 7.46587 20.9338 7.36461 20.897 7.21732C20.8602 7.07003 20.8356 6.97797 20.8234 6.94115C20.7988 6.87978 20.7405 6.81534 20.6485 6.74783C20.5564 6.68032 20.4981 6.61588 20.4735 6.55451C20.4613 6.52996 20.4459 6.4962 20.4275 6.45324C20.4091 6.41028 20.3907 6.37039 20.3723 6.33357C20.3539 6.29675 20.3293 6.26299 20.2986 6.23231C20.2679 6.20162 20.2342 6.18628 20.1974 6.18628C20.1605 6.18628 20.1176 6.21696 20.0685 6.27834C20.0194 6.33971 19.9734 6.40108 19.9304 6.46245C19.8874 6.52382 19.8598 6.55451 19.8476 6.55451C19.8107 6.52996 19.7739 6.52075 19.7371 6.52689C19.7003 6.53303 19.6726 6.53916 19.6542 6.5453C19.6358 6.55144 19.6082 6.56985 19.5714 6.60054C19.5346 6.63122 19.5039 6.6527 19.4793 6.66498C19.4425 6.68952 19.3903 6.70794 19.3228 6.72021C19.2553 6.73248 19.2032 6.74476 19.1663 6.75703C19.3504 6.69566 19.3443 6.62815 19.1479 6.55451C19.0252 6.50541 18.927 6.487 18.8533 6.49927C18.9638 6.45018 19.0098 6.37653 18.9914 6.27834C18.973 6.18014 18.9208 6.09422 18.8349 6.02057H18.927C18.9147 5.97148 18.8625 5.91931 18.7705 5.86408C18.6784 5.80884 18.571 5.75668 18.4483 5.70758C18.3255 5.65848 18.2458 5.62166 18.2089 5.59711C18.1107 5.53574 17.9021 5.47744 17.5829 5.4222C17.2638 5.36697 17.0613 5.3639 16.9754 5.413C16.914 5.48664 16.8864 5.55108 16.8925 5.60632C16.8987 5.66155 16.9232 5.74747 16.9662 5.86408C17.0091 5.98068 17.0306 6.0574 17.0306 6.09422C17.0429 6.16787 17.0091 6.24765 16.9293 6.33357C16.8496 6.41949 16.8097 6.49314 16.8097 6.55451C16.8097 6.64043 16.8956 6.73555 17.0674 6.83989C17.2393 6.94422 17.3006 7.07617 17.2515 7.23573C17.2147 7.33393 17.1165 7.43212 16.957 7.53032C16.7974 7.62851 16.6992 7.70215 16.6624 7.75125C16.601 7.84945 16.5918 7.96298 16.6348 8.09186C16.6777 8.22075 16.7422 8.32201 16.8281 8.39565C16.8526 8.4202 16.8618 8.44475 16.8557 8.4693C16.8496 8.49385 16.8281 8.52147 16.7913 8.55215C16.7544 8.58284 16.7207 8.60739 16.69 8.6258C16.6593 8.64421 16.6194 8.66569 16.5703 8.69024L16.5151 8.72706C16.3801 8.78843 16.2542 8.75161 16.1376 8.61659C16.021 8.48157 15.9382 8.32201 15.8891 8.13789C15.8032 7.83104 15.705 7.64692 15.5945 7.58555C15.3122 7.48735 15.1342 7.49349 15.0606 7.60396C14.9992 7.4444 14.7476 7.28483 14.3057 7.12526C13.9988 7.01479 13.6429 6.99025 13.2378 7.05162C13.3115 7.03934 13.3115 6.94728 13.2378 6.77544C13.1519 6.59133 13.0353 6.51768 12.888 6.55451C12.9248 6.48086 12.9494 6.37346 12.9617 6.23231C12.9739 6.09115 12.9801 6.0083 12.9801 5.98375C13.0169 5.82419 13.0905 5.68303 13.201 5.56029C13.2133 5.54801 13.2563 5.49585 13.3299 5.40379C13.4035 5.31173 13.4618 5.22888 13.5048 5.15524C13.5478 5.08159 13.5508 5.04477 13.514 5.04477C13.9436 5.09386 14.2505 5.02636 14.4346 4.84224C14.496 4.78087 14.5665 4.67654 14.6463 4.52925C14.7261 4.38195 14.7905 4.27762 14.8396 4.21625C14.9501 4.14261 15.036 4.10885 15.0974 4.11499C15.1588 4.12113 15.2478 4.15488 15.3644 4.21625C15.481 4.27762 15.57 4.30831 15.6313 4.30831C15.8032 4.32058 15.8983 4.25307 15.9167 4.10578C15.9351 3.95849 15.8891 3.83575 15.7786 3.73755C15.9259 3.74983 15.9443 3.6455 15.8339 3.42456C15.7725 3.33864 15.7234 3.28341 15.6866 3.25886C15.5393 3.20976 15.3736 3.24044 15.1895 3.35091C15.0913 3.40001 15.1035 3.44911 15.2263 3.49821C15.214 3.48593 15.1557 3.55037 15.0514 3.69152C14.947 3.83268 14.8458 3.94008 14.7476 4.01373C14.6494 4.08737 14.5512 4.05669 14.453 3.92167C14.4407 3.90939 14.407 3.82654 14.3517 3.67311C14.2965 3.51969 14.2382 3.43683 14.1768 3.42456C14.0786 3.42456 13.9804 3.51662 13.8822 3.70073C13.9191 3.60254 13.8516 3.51048 13.6797 3.42456C13.5079 3.33864 13.3606 3.28954 13.2378 3.27727C13.4711 3.12998 13.422 2.96427 13.0905 2.78016C13.0046 2.73106 12.8788 2.70037 12.7131 2.6881C12.5474 2.67583 12.4277 2.70037 12.3541 2.76175C12.2927 2.84767 12.259 2.91824 12.2528 2.97348C12.2467 3.02871 12.2774 3.07781 12.3449 3.12077C12.4124 3.16373 12.4768 3.19748 12.5382 3.22203C12.5996 3.24658 12.6702 3.27113 12.7499 3.29568C12.8297 3.32023 12.8819 3.33864 12.9064 3.35091C13.0783 3.47366 13.1274 3.55958 13.0537 3.60867C13.0292 3.62095 12.977 3.64243 12.8972 3.67311C12.8174 3.7038 12.7469 3.73142 12.6855 3.75597C12.6241 3.78051 12.5873 3.80506 12.575 3.82961C12.5382 3.87871 12.5382 3.96463 12.575 4.08737C12.6118 4.21012 12.5996 4.29604 12.5382 4.34513C12.4768 4.28376 12.4216 4.17636 12.3725 4.02293C12.3234 3.8695 12.2804 3.76824 12.2436 3.71914C12.3295 3.82961 12.1761 3.86643 11.7833 3.82961L11.5992 3.8112C11.5501 3.8112 11.4519 3.82347 11.3046 3.84802C11.1573 3.87257 11.0315 3.87871 10.9272 3.86643C10.8229 3.85416 10.74 3.80506 10.6786 3.71914C10.6295 3.62095 10.6295 3.49821 10.6786 3.35091C10.6909 3.30182 10.7155 3.28954 10.7523 3.31409C10.7032 3.27727 10.6357 3.21896 10.5498 3.13918C10.4638 3.0594 10.4025 3.00723 10.3657 2.98268C9.80103 3.1668 9.22414 3.41842 8.63497 3.73755C8.70862 3.74983 8.78227 3.74369 8.85591 3.71914C8.91728 3.69459 8.99707 3.6547 9.09526 3.59947C9.19346 3.54423 9.25483 3.51048 9.27938 3.49821C9.6967 3.32636 9.95446 3.28341 10.0527 3.36933L10.1447 3.27727C10.3166 3.47366 10.4393 3.62708 10.5129 3.73755C10.427 3.68846 10.2429 3.68232 9.9606 3.71914C9.71511 3.79279 9.5801 3.86643 9.55555 3.94008C9.64147 4.08737 9.67215 4.19784 9.6476 4.27149C9.59851 4.23466 9.52793 4.17329 9.43587 4.08737C9.34382 4.00145 9.25483 3.93394 9.16891 3.88485C9.08299 3.83575 8.99093 3.80506 8.89273 3.79279C8.69635 3.79279 8.56133 3.79893 8.48768 3.8112C6.69563 4.79314 5.2534 6.15559 4.16099 7.89854C4.24691 7.98446 4.32056 8.03356 4.38193 8.04584C4.43102 8.05811 4.46171 8.11334 4.47398 8.21154C4.48626 8.30973 4.5016 8.37724 4.52001 8.41406C4.53842 8.45089 4.609 8.43248 4.73175 8.35883C4.84221 8.45703 4.86063 8.57363 4.78698 8.70865C4.79925 8.69637 5.06929 8.86208 5.59708 9.20576C5.8303 9.41442 5.95918 9.5433 5.98372 9.5924C6.02055 9.72742 5.95918 9.83788 5.79961 9.9238C5.78734 9.89926 5.7321 9.84402 5.63391 9.7581C5.53571 9.67218 5.48048 9.64763 5.4682 9.68446C5.43138 9.74583 5.43445 9.85936 5.47741 10.0251C5.52037 10.1908 5.58481 10.2675 5.67073 10.2552C5.58481 10.2552 5.52651 10.3534 5.49582 10.5498C5.46514 10.7462 5.44979 10.9641 5.44979 11.2034C5.44979 11.4427 5.44366 11.587 5.43138 11.6361L5.4682 11.6545C5.43138 11.8018 5.46514 12.0135 5.56947 12.2897C5.6738 12.5658 5.80575 12.6855 5.96531 12.6487C5.80575 12.6855 5.92849 12.9494 6.33354 13.4404C6.40719 13.5386 6.45628 13.5938 6.48083 13.6061C6.51766 13.6306 6.5913 13.6767 6.70177 13.7442C6.81224 13.8117 6.9043 13.8731 6.97794 13.9283C7.05159 13.9835 7.11296 14.048 7.16206 14.1216C7.21115 14.183 7.27253 14.3211 7.34617 14.5359C7.41982 14.7507 7.50574 14.8949 7.60393 14.9685C7.57938 15.0422 7.63769 15.1649 7.77884 15.3368C7.92 15.5086 7.98444 15.6498 7.97216 15.7602C7.95989 15.7602 7.94454 15.7664 7.92613 15.7786C7.90772 15.7909 7.89238 15.7971 7.8801 15.7971C7.91693 15.883 8.01205 15.9689 8.16548 16.0548C8.31891 16.1407 8.41404 16.2205 8.45086 16.2942C8.46313 16.331 8.47541 16.3924 8.48768 16.4783C8.49996 16.5642 8.51837 16.6317 8.54292 16.6808C8.56747 16.7299 8.61656 16.7422 8.69021 16.7176C8.71476 16.4721 8.56747 16.0916 8.24833 15.5761C8.06422 15.2693 7.95989 15.0913 7.93534 15.0422C7.89852 14.9808 7.86476 14.8857 7.83408 14.7568C7.80339 14.6279 7.77577 14.5389 7.75122 14.4898C7.77577 14.4898 7.8126 14.4991 7.86169 14.5175C7.91079 14.5359 7.96296 14.5574 8.01819 14.5819C8.07343 14.6065 8.11945 14.631 8.15628 14.6555C8.1931 14.6801 8.20537 14.6985 8.1931 14.7108C8.15628 14.7967 8.16855 14.9041 8.22992 15.033C8.29129 15.1619 8.36494 15.2754 8.45086 15.3736C8.53678 15.4718 8.64111 15.5884 8.76385 15.7234C8.8866 15.8584 8.96024 15.9382 8.98479 15.9628C9.05844 16.0364 9.14436 16.1561 9.24255 16.3218C9.34075 16.4875 9.34075 16.5703 9.24255 16.5703C9.35302 16.5703 9.47576 16.6317 9.61078 16.7545C9.7458 16.8772 9.85013 16.9999 9.92378 17.1227C9.98515 17.2209 10.0342 17.3804 10.0711 17.6014C10.1079 17.8223 10.1386 17.9696 10.1631 18.0433C10.1877 18.1292 10.2398 18.212 10.3196 18.2918C10.3994 18.3716 10.4761 18.4299 10.5498 18.4667C10.6234 18.5035 10.7216 18.5526 10.8443 18.614C10.9671 18.6754 11.0469 18.7183 11.0837 18.7429C11.1451 18.7674 11.2586 18.8319 11.4243 18.9362C11.59 19.0405 11.722 19.1111 11.8202 19.1479C11.9429 19.197 12.0411 19.2216 12.1147 19.2216C12.1884 19.2216 12.2774 19.2062 12.3817 19.1756C12.486 19.1449 12.5689 19.1234 12.6303 19.1111C12.8144 19.0866 12.9924 19.1786 13.1642 19.3873C13.336 19.596 13.4649 19.7248 13.5508 19.7739C13.9927 20.0071 14.3303 20.0747 14.5635 19.9765C14.5389 19.9887 14.542 20.0348 14.5727 20.1145C14.6034 20.1943 14.6525 20.2895 14.72 20.3999C14.7875 20.5104 14.8427 20.5994 14.8857 20.6669C14.9286 20.7344 14.9624 20.7866 14.9869 20.8234C15.0483 20.897 15.1588 20.9891 15.3183 21.0996C15.4779 21.21 15.5884 21.3021 15.6497 21.3757C15.7234 21.3266 15.7663 21.2714 15.7786 21.21C15.7418 21.3082 15.7848 21.431 15.9075 21.5783C16.0302 21.7255 16.1407 21.7869 16.2389 21.7624C16.4107 21.7255 16.4967 21.5292 16.4967 21.1732C16.1162 21.3573 15.8154 21.2469 15.5945 20.8418C15.5945 20.8295 15.5792 20.7958 15.5485 20.7405C15.5178 20.6853 15.4932 20.6331 15.4748 20.584C15.4564 20.5349 15.4411 20.4828 15.4288 20.4275C15.4165 20.3723 15.4165 20.3263 15.4288 20.2895C15.4411 20.2526 15.4718 20.2342 15.5209 20.2342C15.6313 20.2342 15.6927 20.2127 15.705 20.1698C15.7172 20.1268 15.705 20.0501 15.6682 19.9396C15.6313 19.8292 15.6068 19.7494 15.5945 19.7003C15.5822 19.6021 15.5147 19.4794 15.392 19.3321C15.2692 19.1848 15.1956 19.0927 15.171 19.0559C15.1097 19.1664 15.0115 19.2155 14.8765 19.2032C14.7414 19.1909 14.6432 19.1357 14.5819 19.0375C14.5819 19.0498 14.5727 19.0835 14.5543 19.1387C14.5358 19.194 14.5266 19.2339 14.5266 19.2584C14.3671 19.2584 14.275 19.2523 14.2505 19.24C14.2627 19.2032 14.2781 19.0958 14.2965 18.9178C14.3149 18.7398 14.3364 18.6017 14.3609 18.5035C14.3732 18.4544 14.407 18.3808 14.4622 18.2826C14.5174 18.1844 14.5635 18.0954 14.6003 18.0156C14.6371 17.9359 14.6617 17.8591 14.6739 17.7855C14.6862 17.7119 14.6586 17.6535 14.5911 17.6106C14.5236 17.5676 14.4162 17.5523 14.2689 17.5646C14.0357 17.5768 13.8761 17.6996 13.7902 17.9328C13.7779 17.9696 13.7595 18.0341 13.7349 18.1261C13.7104 18.2182 13.6797 18.2887 13.6429 18.3378C13.6061 18.3869 13.5508 18.4299 13.4772 18.4667C13.3913 18.5035 13.244 18.5158 13.0353 18.5035C12.8266 18.4913 12.6794 18.4606 12.5934 18.4115C12.4339 18.3133 12.2958 18.1353 12.1792 17.8776C12.0626 17.6198 12.0043 17.3927 12.0043 17.1963C12.0043 17.0736 12.0196 16.911 12.0503 16.7084C12.081 16.5059 12.0994 16.3525 12.1055 16.2481C12.1117 16.1438 12.0779 15.9934 12.0043 15.7971C12.0411 15.7725 12.0963 15.7142 12.17 15.6222C12.2436 15.5301 12.305 15.4657 12.3541 15.4288C12.3786 15.4166 12.4063 15.4074 12.4369 15.4012C12.4676 15.3951 12.4952 15.3951 12.5198 15.4012C12.5443 15.4074 12.5689 15.3981 12.5934 15.3736C12.618 15.349 12.6364 15.3122 12.6487 15.2631C12.6364 15.2509 12.6118 15.2324 12.575 15.2079C12.5382 15.1711 12.5137 15.1527 12.5014 15.1527C12.5873 15.1895 12.7622 15.1803 13.0261 15.125C13.29 15.0698 13.4588 15.079 13.5324 15.1527C13.7165 15.2877 13.8516 15.2754 13.9375 15.1158C13.9375 15.1036 13.9221 15.0453 13.8914 14.9409C13.8608 14.8366 13.8577 14.7537 13.8822 14.6924C13.9436 15.0238 14.1216 15.079 14.4162 14.8581C14.453 14.8949 14.5481 14.9256 14.7016 14.9501C14.855 14.9747 14.9624 15.0054 15.0238 15.0422C15.0606 15.0667 15.1035 15.1005 15.1526 15.1435C15.2017 15.1864 15.2355 15.214 15.2539 15.2263C15.2723 15.2386 15.303 15.2355 15.346 15.2171C15.3889 15.1987 15.4411 15.1588 15.5024 15.0974C15.6252 15.2693 15.6988 15.4166 15.7234 15.5393C15.8584 16.0303 15.975 16.3003 16.0732 16.3494C16.1591 16.3862 16.2266 16.3985 16.2757 16.3862C16.3248 16.374 16.3524 16.3156 16.3586 16.2113C16.3647 16.107 16.3647 16.0211 16.3586 15.9536C16.3524 15.886 16.3432 15.8093 16.331 15.7234L16.3126 15.5761C16.3126 15.4657 16.3126 15.3552 16.3126 15.2447L16.2941 15.0974C16.11 15.0606 15.9965 14.987 15.9535 14.8765C15.9106 14.766 15.9198 14.6525 15.9811 14.5359C16.0425 14.4193 16.1346 14.3057 16.2573 14.1953C16.2696 14.183 16.3187 14.1615 16.4046 14.1308C16.4905 14.1001 16.5857 14.0602 16.69 14.0111C16.7943 13.9621 16.871 13.913 16.9201 13.8639C17.1779 13.6306 17.2699 13.4158 17.1963 13.2195C17.2822 13.2195 17.3497 13.1642 17.3988 13.0538C17.3866 13.0538 17.3559 13.0353 17.3068 12.9985C17.2577 12.9617 17.2116 12.931 17.1687 12.9065C17.1257 12.8819 17.0981 12.8696 17.0858 12.8696C17.1963 12.8083 17.2086 12.7101 17.1227 12.5751C17.184 12.5382 17.2301 12.4707 17.2607 12.3725C17.2914 12.2743 17.3375 12.213 17.3988 12.1884C17.5093 12.3357 17.6382 12.348 17.7855 12.2252C17.8714 12.127 17.8775 12.0288 17.8039 11.9307C17.8653 11.8447 17.9911 11.7803 18.1813 11.7373C18.3716 11.6944 18.4851 11.6361 18.5219 11.5624C18.6078 11.587 18.6569 11.5747 18.6692 11.5256C18.6815 11.4765 18.6876 11.4029 18.6876 11.3047C18.6876 11.2065 18.706 11.1328 18.7429 11.0837C18.792 11.0224 18.884 10.9671 19.019 10.918C19.1541 10.8689 19.2338 10.8382 19.2584 10.826L19.5714 10.6234C19.6082 10.5743 19.6082 10.5498 19.5714 10.5498C19.7923 10.5743 19.9826 10.5068 20.1421 10.3473C20.2649 10.2122 20.2281 10.0895 20.0317 9.97904C20.0685 9.90539 20.0501 9.84709 19.9764 9.80413C19.9028 9.76117 19.8107 9.72742 19.7003 9.70287C19.7371 9.69059 19.8077 9.68752 19.912 9.69366C20.0163 9.6998 20.0808 9.69059 20.1053 9.66604C20.2894 9.5433 20.2465 9.44511 19.9764 9.37146C19.7678 9.31009 19.5039 9.38374 19.1847 9.5924ZM16.1837 25.7392C18.7122 25.2974 20.8663 24.1375 22.6461 22.2595C22.6093 22.2227 22.5326 22.195 22.416 22.1766C22.2993 22.1582 22.2226 22.1367 22.1858 22.1122C21.9649 22.0263 21.8176 21.9772 21.7439 21.9649C21.7562 21.879 21.7409 21.7992 21.6979 21.7255C21.6549 21.6519 21.6058 21.5967 21.5506 21.5598C21.4954 21.523 21.4187 21.4739 21.3205 21.4126C21.2223 21.3512 21.1548 21.3082 21.1179 21.2837C21.0934 21.2591 21.0504 21.2223 20.9891 21.1732C20.9277 21.1241 20.8847 21.0904 20.8602 21.0719C20.8356 21.0535 20.7896 21.0259 20.7221 20.9891C20.6546 20.9523 20.6024 20.94 20.5656 20.9523C20.5288 20.9645 20.4674 20.9707 20.3815 20.9707L20.3263 20.9891C20.2894 21.0014 20.2557 21.0167 20.225 21.0351C20.1943 21.0535 20.1605 21.0719 20.1237 21.0904C20.0869 21.1088 20.0624 21.1272 20.0501 21.1456C20.0378 21.164 20.0378 21.1793 20.0501 21.1916C19.7923 20.983 19.5714 20.8479 19.3873 20.7866C19.3259 20.7743 19.2584 20.7405 19.1847 20.6853C19.1111 20.6301 19.0467 20.5871 18.9914 20.5564C18.9362 20.5257 18.8748 20.5165 18.8073 20.5288C18.7398 20.5411 18.6692 20.584 18.5956 20.6577C18.5342 20.7191 18.4974 20.8111 18.4851 20.9339C18.4728 21.0566 18.4606 21.1364 18.4483 21.1732C18.3624 21.1118 18.3624 21.0044 18.4483 20.851C18.5342 20.6976 18.5465 20.584 18.4851 20.5104C18.4483 20.4367 18.3838 20.4091 18.2918 20.4275C18.1997 20.446 18.1261 20.4736 18.0708 20.5104C18.0156 20.5472 17.945 20.5994 17.8591 20.6669C17.7732 20.7344 17.718 20.7743 17.6934 20.7866C17.6689 20.7988 17.6167 20.8326 17.5369 20.8878C17.4571 20.9431 17.405 20.9891 17.3804 21.0259C17.3436 21.075 17.3068 21.1487 17.2699 21.2469C17.2331 21.345 17.2024 21.4126 17.1779 21.4494C17.1533 21.4003 17.0828 21.3604 16.9662 21.3297C16.8496 21.299 16.7913 21.2653 16.7913 21.2284C16.8158 21.3512 16.8403 21.566 16.8649 21.8728C16.8894 22.1797 16.9201 22.4129 16.957 22.5725C17.0429 22.953 16.9692 23.2476 16.736 23.4562C16.4046 23.7631 16.2266 24.0086 16.2021 24.1927C16.153 24.4627 16.2266 24.6223 16.423 24.6714C16.423 24.7573 16.3739 24.8831 16.2757 25.0488C16.1775 25.2145 16.1346 25.3465 16.1469 25.4447C16.1469 25.5183 16.1591 25.6165 16.1837 25.7392Z" fill="#333333"/>
</svg>
