<svg width="30" height="30" viewBox="0 0 30 30" fill="none" xmlns="http://www.w3.org/2000/svg">
<path d="M6.80613 24.8631C6.80613 24.8631 6.86276 24.8064 6.97602 24.6932C7.08927 24.5799 7.1459 24.3683 7.1459 24.0583C7.1459 23.7484 7.03265 23.4801 6.80613 23.2536C6.57962 23.0271 6.31138 22.9139 6.00141 22.9139C5.69144 22.9139 5.4232 23.0271 5.19669 23.2536C4.97017 23.4801 4.85692 23.7484 4.85692 24.0583C4.85692 24.3683 4.97017 24.6366 5.19669 24.8631C5.4232 25.0896 5.69144 25.2028 6.00141 25.2028C6.31138 25.2028 6.57962 25.0896 6.80613 24.8631ZM18.6624 16.5476L6.46636 28.7436C6.02525 29.1847 5.48877 29.4053 4.85692 29.4053C4.23698 29.4053 3.69454 29.1847 3.22959 28.7436L1.33402 26.8123C0.880994 26.3831 0.65448 25.8466 0.65448 25.2028C0.65448 24.571 0.880994 24.0285 1.33402 23.5755L13.5121 11.3974C13.9771 12.5657 14.6596 13.5999 15.5597 14.5C16.4598 15.4001 17.494 16.0827 18.6624 16.5476ZM30 8.76863C30 9.23358 29.8629 9.86543 29.5887 10.6642C29.0284 12.2617 28.0478 13.5582 26.647 14.5537C25.2462 15.5492 23.7053 16.0469 22.0243 16.0469C19.8188 16.0469 17.9322 15.263 16.3644 13.6953C14.7967 12.1276 14.0129 10.241 14.0129 8.03544C14.0129 5.8299 14.7967 3.94328 16.3644 2.37556C17.9322 0.807842 19.8188 0.023983 22.0243 0.023983C22.7158 0.023983 23.44 0.122339 24.1971 0.319048C24.9541 0.515759 25.5949 0.79294 26.1195 1.15059C26.3102 1.28173 26.4056 1.44864 26.4056 1.65131C26.4056 1.85398 26.3102 2.02089 26.1195 2.15203L20.8798 5.1742V9.17993L24.3312 11.0934C24.3908 11.0576 24.8617 10.7685 25.7439 10.2261C26.6261 9.68363 27.4338 9.20079 28.167 8.77757C28.9002 8.35435 29.3205 8.14273 29.4278 8.14273C29.6066 8.14273 29.7467 8.20234 29.848 8.32156C29.9493 8.44078 30 8.5898 30 8.76863Z" fill="#333333"/>
</svg>
