<svg width="36" height="37" viewBox="0 0 36 37" fill="none" xmlns="http://www.w3.org/2000/svg">
<path d="M21.2995 21.3195C21.2995 21.3195 21.5273 21.0916 21.9831 20.6359C22.4388 20.1802 22.6667 19.3082 22.6667 18.02C22.6667 16.7318 22.2109 15.632 21.2995 14.7205C20.388 13.8091 19.2882 13.3534 18 13.3534C16.7118 13.3534 15.612 13.8091 14.7005 14.7205C13.7891 15.632 13.3333 16.7318 13.3333 18.02C13.3333 19.3082 13.7891 20.408 14.7005 21.3195C15.612 22.231 16.7118 22.6867 18 22.6867C19.2882 22.6867 20.388 22.231 21.2995 21.3195ZM32 16.033V20.0799C32 20.2257 31.9514 20.3655 31.8542 20.4992C31.7569 20.6329 31.6354 20.7119 31.4896 20.7362L28.1172 21.2466C27.8863 21.9028 27.6493 22.4558 27.4062 22.9054C27.8316 23.5131 28.4818 24.3516 29.3568 25.4211C29.4783 25.5669 29.5391 25.7188 29.5391 25.8768C29.5391 26.0348 29.4844 26.1745 29.375 26.2961C29.0469 26.7457 28.4453 27.402 27.5703 28.2648C26.6953 29.1277 26.1241 29.5591 25.8568 29.5591C25.7109 29.5591 25.5529 29.5044 25.3828 29.395L22.8672 27.4263C22.3325 27.7058 21.7795 27.9367 21.2083 28.119C21.0139 29.7718 20.8377 30.902 20.6797 31.5096C20.5946 31.8499 20.3759 32.02 20.0234 32.02H15.9766C15.8064 32.02 15.6576 31.9684 15.5299 31.8651C15.4023 31.7618 15.3325 31.6311 15.3203 31.4731L14.8099 28.119C14.2144 27.9245 13.6675 27.6997 13.1693 27.4445L10.599 29.395C10.4774 29.5044 10.3255 29.5591 10.1432 29.5591C9.97309 29.5591 9.82118 29.4922 9.6875 29.3586C8.15625 27.9731 7.15365 26.9523 6.67969 26.2961C6.59462 26.1745 6.55208 26.0348 6.55208 25.8768C6.55208 25.731 6.60069 25.5912 6.69792 25.4575C6.88021 25.2023 7.1901 24.7982 7.6276 24.2453C8.0651 23.6923 8.39323 23.2639 8.61198 22.9601C8.28385 22.3525 8.03472 21.7509 7.86458 21.1554L4.52865 20.6632C4.37066 20.6389 4.24306 20.563 4.14583 20.4354C4.04861 20.3078 4 20.165 4 20.007V15.9601C4 15.8143 4.04861 15.6745 4.14583 15.5409C4.24306 15.4072 4.35851 15.3282 4.49219 15.3039L7.88281 14.7935C8.05295 14.2344 8.28993 13.6754 8.59375 13.1164C8.10764 12.4237 7.45747 11.5851 6.64323 10.6007C6.5217 10.4549 6.46094 10.3091 6.46094 10.1632C6.46094 10.0417 6.51562 9.90196 6.625 9.74398C6.94097 9.30648 7.5395 8.65327 8.42057 7.78434C9.30165 6.91542 9.87587 6.48096 10.1432 6.48096C10.3012 6.48096 10.4592 6.54172 10.6172 6.66325L13.1328 8.61377C13.6675 8.33426 14.2205 8.10335 14.7917 7.92106C14.9861 6.26828 15.1623 5.13808 15.3203 4.53044C15.4054 4.19016 15.6241 4.02002 15.9766 4.02002H20.0234C20.1936 4.02002 20.3424 4.07167 20.4701 4.17497C20.5977 4.27827 20.6675 4.40891 20.6797 4.56689L21.1901 7.92106C21.7856 8.11551 22.3325 8.34033 22.8307 8.59554L25.4193 6.64502C25.5286 6.53564 25.6745 6.48096 25.8568 6.48096C26.0148 6.48096 26.1667 6.54172 26.3125 6.66325C27.8802 8.10943 28.8828 9.14242 29.3203 9.76221C29.4054 9.85943 29.4479 9.99311 29.4479 10.1632C29.4479 10.3091 29.3993 10.4488 29.3021 10.5825C29.1198 10.8377 28.8099 11.2418 28.3724 11.7948C27.9349 12.3477 27.6068 12.7761 27.388 13.0799C27.704 13.6876 27.9531 14.283 28.1354 14.8664L31.4714 15.3768C31.6293 15.4011 31.7569 15.4771 31.8542 15.6047C31.9514 15.7323 32 15.8751 32 16.033Z" fill="#333333"/>
</svg>
