<svg width="28" height="25" viewBox="0 0 28 25" fill="none" xmlns="http://www.w3.org/2000/svg">
<path d="M10 4.8772H18V2.8772H10V4.8772ZM28 14.8772V22.3772C28 23.0647 27.7552 23.6532 27.2656 24.1428C26.776 24.6324 26.1875 24.8772 25.5 24.8772H2.5C1.8125 24.8772 1.22396 24.6324 0.734375 24.1428C0.244792 23.6532 0 23.0647 0 22.3772V14.8772H10.5V17.3772C10.5 17.648 10.599 17.8824 10.7969 18.0803C10.9948 18.2782 11.2292 18.3772 11.5 18.3772H16.5C16.7708 18.3772 17.0052 18.2782 17.2031 18.0803C17.401 17.8824 17.5 17.648 17.5 17.3772V14.8772H28ZM16 14.8772V16.8772H12V14.8772H16ZM28 7.3772V13.3772H0V7.3772C0 6.6897 0.244792 6.10115 0.734375 5.61157C1.22396 5.12199 1.8125 4.8772 2.5 4.8772H8V2.3772C8 1.96053 8.14583 1.60636 8.4375 1.3147C8.72917 1.02303 9.08333 0.877193 9.5 0.877193H18.5C18.9167 0.877193 19.2708 1.02303 19.5625 1.3147C19.8542 1.60636 20 1.96053 20 2.3772V4.8772H25.5C26.1875 4.8772 26.776 5.12199 27.2656 5.61157C27.7552 6.10115 28 6.6897 28 7.3772Z" fill="#333333"/>
</svg>
