<svg width="36" height="37" viewBox="0 0 36 37" fill="none" xmlns="http://www.w3.org/2000/svg">
<path d="M11.6516 27.1905C11.6516 27.1905 11.7652 27.0825 11.9925 26.8666C12.2197 26.6507 12.3333 26.2473 12.3333 25.6564C12.3333 25.0655 12.1061 24.5541 11.6516 24.1223C11.1971 23.6905 10.659 23.4746 10.037 23.4746C9.41512 23.4746 8.87693 23.6905 8.42245 24.1223C7.96798 24.5541 7.74074 25.0655 7.74074 25.6564C7.74074 26.2473 7.96798 26.7587 8.42245 27.1905C8.87693 27.6223 9.41512 27.8382 10.037 27.8382C10.659 27.8382 11.1971 27.6223 11.6516 27.1905ZM5.44444 16.9291H12.3333V12.5655H9.49884C9.34336 12.5655 9.21181 12.6166 9.10417 12.7189L5.6059 16.0427C5.49826 16.145 5.44444 16.27 5.44444 16.4177V16.9291ZM27.7257 27.1905C27.7257 27.1905 27.8393 27.0825 28.0666 26.8666C28.2938 26.6507 28.4074 26.2473 28.4074 25.6564C28.4074 25.0655 28.1802 24.5541 27.7257 24.1223C27.2712 23.6905 26.733 23.4746 26.1111 23.4746C25.4892 23.4746 24.951 23.6905 24.4965 24.1223C24.0421 24.5541 23.8148 25.0655 23.8148 25.6564C23.8148 26.2473 24.0421 26.7587 24.4965 27.1905C24.951 27.6223 25.4892 27.8382 26.1111 27.8382C26.733 27.8382 27.2712 27.6223 27.7257 27.1905ZM33 7.11093V24.5655C33 24.7359 32.9761 24.8865 32.9282 25.0172C32.8804 25.1479 32.7997 25.253 32.6861 25.3325C32.5724 25.4121 32.4738 25.4774 32.39 25.5285C32.3063 25.5797 32.1658 25.6138 31.9685 25.6308C31.7711 25.6479 31.6366 25.6592 31.5648 25.6649C31.4931 25.6706 31.3406 25.6706 31.1073 25.6649C30.8741 25.6592 30.7396 25.6564 30.7037 25.6564C30.7037 26.8609 30.2552 27.8893 29.3582 28.7416C28.4612 29.5939 27.3789 30.02 26.1111 30.02C24.8434 30.02 23.761 29.5939 22.864 28.7416C21.967 27.8893 21.5185 26.8609 21.5185 25.6564H14.6296C14.6296 26.8609 14.1811 27.8893 13.2841 28.7416C12.3872 29.5939 11.3048 30.02 10.037 30.02C8.76929 30.02 7.68692 29.5939 6.78993 28.7416C5.89294 27.8893 5.44444 26.8609 5.44444 25.6564H4.2963C4.26042 25.6564 4.12587 25.6592 3.89265 25.6649C3.65943 25.6706 3.50694 25.6706 3.43519 25.6649C3.36343 25.6592 3.22888 25.6479 3.03154 25.6308C2.8342 25.6138 2.69367 25.5797 2.60995 25.5285C2.52623 25.4774 2.42757 25.4121 2.31395 25.3325C2.20033 25.253 2.1196 25.1479 2.07176 25.0172C2.02392 24.8865 2 24.7359 2 24.5655C2 24.27 2.11362 24.0143 2.34086 23.7984C2.56809 23.5825 2.83719 23.4746 3.14815 23.4746V18.02C3.14815 17.9291 3.14516 17.7302 3.13918 17.4234C3.1332 17.1166 3.1332 16.9007 3.13918 16.7757C3.14516 16.6507 3.16011 16.4547 3.18403 16.1876C3.20795 15.9206 3.24682 15.7104 3.30064 15.557C3.35446 15.4035 3.43818 15.2302 3.55179 15.0371C3.66541 14.8439 3.79996 14.6734 3.95544 14.5257L7.50752 11.1507C7.73476 10.9348 8.03675 10.753 8.41348 10.6052C8.79022 10.4575 9.14005 10.3837 9.46296 10.3837H12.3333V7.11093C12.3333 6.81547 12.447 6.55979 12.6742 6.34388C12.9014 6.12797 13.1705 6.02002 13.4815 6.02002H31.8519C32.1628 6.02002 32.4319 6.12797 32.6591 6.34388C32.8864 6.55979 33 6.81547 33 7.11093Z" fill="#333333"/>
</svg>
