<svg width="35" height="33" viewBox="0 0 35 33" fill="none" xmlns="http://www.w3.org/2000/svg">
<path d="M14.9904 20.0969C14.9904 20.0969 15.2157 19.8715 15.6664 19.4209C16.117 18.9703 16.3423 18.1081 16.3423 16.8343C16.3423 15.5606 15.8917 14.4731 14.9904 13.5718C14.0892 12.6706 13.0017 12.2199 11.7279 12.2199C10.4541 12.2199 9.36662 12.6706 8.46537 13.5718C7.56412 14.4731 7.11349 15.5606 7.11349 16.8343C7.11349 18.1081 7.56412 19.1956 8.46537 20.0969C9.36662 20.9981 10.4541 21.4487 11.7279 21.4487C13.0017 21.4487 14.0892 20.9981 14.9904 20.0969ZM30.1855 26.0631C30.1855 25.4383 29.9572 24.8975 29.5005 24.4409C29.0439 23.9842 28.5032 23.7559 27.8783 23.7559C27.2534 23.7559 26.7127 23.9842 26.256 24.4409C25.7994 24.8975 25.5711 25.4383 25.5711 26.0631C25.5711 26.7 25.7964 27.2438 26.247 27.6944C26.6977 28.145 27.2414 28.3703 27.8783 28.3703C28.5152 28.3703 29.0589 28.145 29.5096 27.6944C29.9602 27.2438 30.1855 26.7 30.1855 26.0631ZM30.1855 7.60553C30.1855 6.98066 29.9572 6.43991 29.5005 5.98328C29.0439 5.52665 28.5032 5.29833 27.8783 5.29833C27.2534 5.29833 26.7127 5.52665 26.256 5.98328C25.7994 6.43991 25.5711 6.98066 25.5711 7.60553C25.5711 8.24241 25.7964 8.78617 26.247 9.23679C26.6977 9.68742 27.2414 9.91273 27.8783 9.91273C28.5152 9.91273 29.0589 9.68742 29.5096 9.23679C29.9602 8.78617 30.1855 8.24241 30.1855 7.60553ZM23.2639 15.1941V18.5287C23.2639 18.6488 23.2218 18.766 23.1377 18.8802C23.0536 18.9943 22.9575 19.0574 22.8493 19.0694L20.0554 19.502C19.9233 19.9226 19.731 20.3792 19.4786 20.8719C19.8872 21.4487 20.428 22.1397 21.1009 22.9448C21.185 23.065 21.2271 23.1851 21.2271 23.3053C21.2271 23.4495 21.185 23.5637 21.1009 23.6478C20.8245 24.0083 20.3288 24.546 19.6138 25.261C18.8988 25.976 18.4272 26.3335 18.1989 26.3335C18.0667 26.3335 17.9405 26.2914 17.8203 26.2073L15.7475 24.5851C15.3029 24.8134 14.8402 24.9997 14.3595 25.1439C14.2274 26.4417 14.0892 27.3729 13.945 27.9377C13.8609 28.2261 13.6806 28.3703 13.4042 28.3703H10.0516C9.91939 28.3703 9.79922 28.3253 9.69107 28.2351C9.58292 28.145 9.52284 28.0399 9.51082 27.9197L9.09624 25.1619C8.68768 25.0417 8.23705 24.8555 7.74437 24.6031L5.61742 26.2073C5.5333 26.2914 5.41314 26.3335 5.25692 26.3335C5.12474 26.3335 4.99856 26.2854 4.8784 26.1893C3.14799 24.5911 2.28279 23.6298 2.28279 23.3053C2.28279 23.1972 2.32485 23.083 2.40897 22.9628C2.52914 22.7946 2.77548 22.4762 3.14799 22.0075C3.52051 21.5389 3.8029 21.1723 3.99517 20.908C3.71879 20.3792 3.50849 19.8866 3.36429 19.4299L0.624495 18.9973C0.504328 18.9853 0.402186 18.9282 0.31807 18.8261C0.233953 18.724 0.191895 18.6068 0.191895 18.4746V15.14C0.191895 15.0198 0.233953 14.9026 0.31807 14.7885C0.402186 14.6743 0.49832 14.6112 0.60647 14.5992L3.40034 14.1666C3.53253 13.746 3.72479 13.2894 3.97714 12.7967C3.56858 12.2199 3.02783 11.529 2.35489 10.7239C2.27078 10.5917 2.22872 10.4715 2.22872 10.3634C2.22872 10.2192 2.27078 10.099 2.35489 10.0029C2.61926 9.64235 3.11194 9.10761 3.83294 8.39863C4.55395 7.68965 5.0286 7.33515 5.25692 7.33515C5.3891 7.33515 5.51528 7.37721 5.63545 7.46133L7.70832 9.08358C8.11689 8.86728 8.57953 8.67501 9.09624 8.50678C9.22843 7.20898 9.36662 6.2837 9.51082 5.73093C9.59494 5.44253 9.77519 5.29833 10.0516 5.29833H13.4042C13.5364 5.29833 13.6566 5.34339 13.7647 5.43352C13.8729 5.52364 13.933 5.62879 13.945 5.74895L14.3595 8.50678C14.7681 8.62695 15.2187 8.8132 15.7114 9.06555L17.8384 7.46133C17.9345 7.37721 18.0547 7.33515 18.1989 7.33515C18.3311 7.33515 18.4572 7.38322 18.5774 7.47935C20.3078 9.07757 21.173 10.0389 21.173 10.3634C21.173 10.4715 21.1309 10.5857 21.0468 10.7058C20.9026 10.8981 20.6503 11.2225 20.2898 11.6792C19.9293 12.1358 19.6589 12.4963 19.4786 12.7607C19.755 13.3375 19.9593 13.8302 20.0915 14.2387L22.8313 14.6533C22.9515 14.6773 23.0536 14.7404 23.1377 14.8426C23.2218 14.9447 23.2639 15.0619 23.2639 15.1941ZM34.7999 24.8014V27.3249C34.7999 27.5171 33.9047 27.7034 32.1142 27.8837C31.97 28.2081 31.7897 28.5205 31.5734 28.821C32.1863 30.1788 32.4927 31.008 32.4927 31.3084C32.4927 31.3565 32.4687 31.3985 32.4206 31.4346C30.9546 32.2878 30.2095 32.7144 30.1855 32.7144C30.0894 32.7144 29.813 32.432 29.3563 31.8672C28.8997 31.3024 28.5873 30.8938 28.419 30.6415C28.1787 30.6655 27.9985 30.6775 27.8783 30.6775C27.7581 30.6775 27.5779 30.6655 27.3375 30.6415C27.1693 30.8938 26.8569 31.3024 26.4002 31.8672C25.9436 32.432 25.6672 32.7144 25.5711 32.7144C25.5471 32.7144 24.802 32.2878 23.336 31.4346C23.2879 31.3985 23.2639 31.3565 23.2639 31.3084C23.2639 31.008 23.5703 30.1788 24.1832 28.821C23.9669 28.5205 23.7866 28.2081 23.6424 27.8837C21.8519 27.7034 20.9567 27.5171 20.9567 27.3249V24.8014C20.9567 24.6091 21.8519 24.4229 23.6424 24.2426C23.7986 23.8941 23.9789 23.5817 24.1832 23.3053C23.5703 21.9474 23.2639 21.1183 23.2639 20.8179C23.2639 20.7698 23.2879 20.7277 23.336 20.6917C23.3841 20.6676 23.5944 20.5475 23.9669 20.3312C24.3394 20.1149 24.6939 19.9106 25.0303 19.7183C25.3668 19.5261 25.5471 19.4299 25.5711 19.4299C25.6672 19.4299 25.9436 19.7093 26.4002 20.2681C26.8569 20.8269 27.1693 21.2324 27.3375 21.4848C27.5779 21.4607 27.7581 21.4487 27.8783 21.4487C27.9985 21.4487 28.1787 21.4607 28.419 21.4848C29.0319 20.6316 29.5847 19.9587 30.0773 19.466L30.1855 19.4299C30.2336 19.4299 30.9786 19.8505 32.4206 20.6917C32.4687 20.7277 32.4927 20.7698 32.4927 20.8179C32.4927 21.1183 32.1863 21.9474 31.5734 23.3053C31.7777 23.5817 31.958 23.8941 32.1142 24.2426C33.9047 24.4229 34.7999 24.6091 34.7999 24.8014ZM34.7999 6.34378V8.86728C34.7999 9.05955 33.9047 9.2458 32.1142 9.42605C31.97 9.7505 31.7897 10.0629 31.5734 10.3634C32.1863 11.7212 32.4927 12.5504 32.4927 12.8508C32.4927 12.8989 32.4687 12.9409 32.4206 12.977C30.9546 13.8302 30.2095 14.2568 30.1855 14.2568C30.0894 14.2568 29.813 13.9744 29.3563 13.4096C28.8997 12.8448 28.5873 12.4362 28.419 12.1839C28.1787 12.2079 27.9985 12.2199 27.8783 12.2199C27.7581 12.2199 27.5779 12.2079 27.3375 12.1839C27.1693 12.4362 26.8569 12.8448 26.4002 13.4096C25.9436 13.9744 25.6672 14.2568 25.5711 14.2568C25.5471 14.2568 24.802 13.8302 23.336 12.977C23.2879 12.9409 23.2639 12.8989 23.2639 12.8508C23.2639 12.5504 23.5703 11.7212 24.1832 10.3634C23.9669 10.0629 23.7866 9.7505 23.6424 9.42605C21.8519 9.2458 20.9567 9.05955 20.9567 8.86728V6.34378C20.9567 6.15151 21.8519 5.96525 23.6424 5.785C23.7986 5.43652 23.9789 5.12409 24.1832 4.8477C23.5703 3.48982 23.2639 2.66067 23.2639 2.36025C23.2639 2.31219 23.2879 2.27013 23.336 2.23408C23.3841 2.21004 23.5944 2.08988 23.9669 1.87358C24.3394 1.65728 24.6939 1.453 25.0303 1.26073C25.3668 1.06846 25.5471 0.972328 25.5711 0.972328C25.6672 0.972328 25.9436 1.25171 26.4002 1.81049C26.8569 2.36926 27.1693 2.77483 27.3375 3.02718C27.5779 3.00315 27.7581 2.99113 27.8783 2.99113C27.9985 2.99113 28.1787 3.00315 28.419 3.02718C29.0319 2.17399 29.5847 1.50106 30.0773 1.00838L30.1855 0.972328C30.2336 0.972328 30.9786 1.39291 32.4206 2.23408C32.4687 2.27013 32.4927 2.31219 32.4927 2.36025C32.4927 2.66067 32.1863 3.48982 31.5734 4.8477C31.7777 5.12409 31.958 5.43652 32.1142 5.785C33.9047 5.96525 34.7999 6.15151 34.7999 6.34378Z" fill="#333333"/>
</svg>
