<svg width="23" height="27" viewBox="0 0 23 27" fill="none" xmlns="http://www.w3.org/2000/svg">
<path d="M23 21.6359C23 22.9901 22.6025 24.0593 21.8075 24.8436C21.0125 25.6279 19.9562 26.02 18.6385 26.02H4.36151C3.0438 26.02 1.98745 25.6279 1.19247 24.8436C0.39749 24.0593 0 22.9901 0 21.6359C0 21.0378 0.0190578 20.4538 0.0571733 19.884C0.0952888 19.3141 0.17152 18.6991 0.285866 18.0389C0.400213 17.3787 0.544508 16.7665 0.71875 16.2023C0.892992 15.6381 1.12713 15.0879 1.42116 14.5519C1.7152 14.0159 2.05279 13.5589 2.43395 13.1808C2.8151 12.8028 3.28066 12.5009 3.83061 12.2752C4.38056 12.0495 4.98769 11.9367 5.65199 11.9367C5.75 11.9367 5.97869 12.058 6.33807 12.3006C6.69744 12.5432 7.1031 12.8141 7.55504 13.1131C8.00698 13.4122 8.59505 13.683 9.31925 13.9256C10.0434 14.1682 10.7704 14.2896 11.5 14.2896C12.2296 14.2896 12.9566 14.1682 13.6808 13.9256C14.4049 13.683 14.993 13.4122 15.445 13.1131C15.8969 12.8141 16.3026 12.5432 16.6619 12.3006C17.0213 12.058 17.25 11.9367 17.348 11.9367C18.0123 11.9367 18.6194 12.0495 19.1694 12.2752C19.7193 12.5009 20.1849 12.8028 20.566 13.1808C20.9472 13.5589 21.2848 14.0159 21.5788 14.5519C21.8729 15.0879 22.107 15.6381 22.2812 16.2023C22.4555 16.7665 22.5998 17.3787 22.7141 18.0389C22.8285 18.6991 22.9047 19.3141 22.9428 19.884C22.9809 20.4538 23 21.0378 23 21.6359ZM15.935 1.92432C15.935 1.92432 16.2413 2.2417 16.8539 2.87646C17.4664 3.51123 17.7727 4.72575 17.7727 6.52002C17.7727 8.31429 17.1602 9.84619 15.935 11.1157C14.7099 12.3853 13.2315 13.02 11.5 13.02C9.76847 13.02 8.29013 12.3853 7.06499 11.1157C5.83984 9.84619 5.22727 8.31429 5.22727 6.52002C5.22727 4.72575 5.83984 3.19385 7.06499 1.92432C8.29013 0.654785 9.76847 0.0200195 11.5 0.0200195C13.2315 0.0200195 14.7099 0.654785 15.935 1.92432Z" fill="#333333"/>
</svg>
