<svg width="36" height="37" viewBox="0 0 36 37" fill="none" xmlns="http://www.w3.org/2000/svg">
<path d="M21.2995 21.6784C21.2995 21.6784 21.5273 21.4505 21.9831 20.9948C22.4388 20.5391 22.6667 19.6671 22.6667 18.3789C22.6667 17.0907 22.2109 15.9909 21.2995 15.0794C20.388 14.168 19.2882 13.7122 18 13.7122C16.7118 13.7122 15.612 14.168 14.7005 15.0794C13.7891 15.9909 13.3333 17.0907 13.3333 18.3789C13.3333 19.6671 13.7891 20.7669 14.7005 21.6784C15.612 22.5898 16.7118 23.0456 18 23.0456C19.2882 23.0456 20.388 22.5898 21.2995 21.6784ZM32 16.3919V20.4388C32 20.5846 31.9514 20.7244 31.8542 20.8581C31.7569 20.9918 31.6354 21.0707 31.4896 21.0951L28.1172 21.6055C27.8863 22.2617 27.6493 22.8147 27.4062 23.2643C27.8316 23.872 28.4818 24.7105 29.3568 25.7799C29.4783 25.9258 29.5391 26.0777 29.5391 26.2357C29.5391 26.3937 29.4844 26.5334 29.375 26.6549C29.0469 27.1046 28.4453 27.7609 27.5703 28.6237C26.6953 29.4865 26.1241 29.918 25.8568 29.918C25.7109 29.918 25.5529 29.8633 25.3828 29.7539L22.8672 27.7852C22.3325 28.0647 21.7795 28.2956 21.2083 28.4779C21.0139 30.1306 20.8377 31.2609 20.6797 31.8685C20.5946 32.2088 20.3759 32.3789 20.0234 32.3789H15.9766C15.8064 32.3789 15.6576 32.3273 15.5299 32.224C15.4023 32.1207 15.3325 31.99 15.3203 31.832L14.8099 28.4779C14.2144 28.2834 13.6675 28.0586 13.1693 27.8034L10.599 29.7539C10.4774 29.8633 10.3255 29.918 10.1432 29.918C9.97309 29.918 9.82118 29.8511 9.6875 29.7174C8.15625 28.332 7.15365 27.3112 6.67969 26.6549C6.59462 26.5334 6.55208 26.3937 6.55208 26.2357C6.55208 26.0898 6.60069 25.9501 6.69792 25.8164C6.88021 25.5612 7.1901 25.1571 7.6276 24.6042C8.0651 24.0512 8.39323 23.6228 8.61198 23.319C8.28385 22.7114 8.03472 22.1098 7.86458 21.5143L4.52865 21.0221C4.37066 20.9978 4.24306 20.9219 4.14583 20.7943C4.04861 20.6667 4 20.5239 4 20.3659V16.319C4 16.1732 4.04861 16.0334 4.14583 15.8997C4.24306 15.7661 4.35851 15.6871 4.49219 15.6628L7.88281 15.1523C8.05295 14.5933 8.28993 14.0343 8.59375 13.4753C8.10764 12.7826 7.45747 11.944 6.64323 10.9596C6.5217 10.8138 6.46094 10.668 6.46094 10.5221C6.46094 10.4006 6.51562 10.2609 6.625 10.1029C6.94097 9.66537 7.5395 9.01215 8.42057 8.14323C9.30165 7.27431 9.87587 6.83984 10.1432 6.83984C10.3012 6.83984 10.4592 6.90061 10.6172 7.02214L13.1328 8.97266C13.6675 8.69314 14.2205 8.46224 14.7917 8.27995C14.9861 6.62717 15.1623 5.49696 15.3203 4.88932C15.4054 4.54905 15.6241 4.37891 15.9766 4.37891H20.0234C20.1936 4.37891 20.3424 4.43056 20.4701 4.53386C20.5977 4.63715 20.6675 4.7678 20.6797 4.92578L21.1901 8.27995C21.7856 8.47439 22.3325 8.69922 22.8307 8.95443L25.4193 7.00391C25.5286 6.89453 25.6745 6.83984 25.8568 6.83984C26.0148 6.83984 26.1667 6.90061 26.3125 7.02214C27.8802 8.46832 28.8828 9.5013 29.3203 10.1211C29.4054 10.2183 29.4479 10.352 29.4479 10.5221C29.4479 10.668 29.3993 10.8077 29.3021 10.9414C29.1198 11.1966 28.8099 11.6007 28.3724 12.1536C27.9349 12.7066 27.6068 13.135 27.388 13.4388C27.704 14.0464 27.9531 14.6419 28.1354 15.2253L31.4714 15.7357C31.6293 15.76 31.7569 15.8359 31.8542 15.9635C31.9514 16.0911 32 16.2339 32 16.3919Z" fill="#333333"/>
</svg>
