<svg width="29" height="29" viewBox="0 0 29 29" fill="none" xmlns="http://www.w3.org/2000/svg">
<path d="M7.76235 1.99529C7.76235 1.99529 8.30396 1.67922 9.38717 1.04709C10.4704 0.414968 12.2946 0.0989037 14.86 0.0989037C17.4253 0.0989037 19.7912 0.731031 21.9576 1.99529C24.124 3.25954 25.8393 4.97487 27.1036 7.14129C28.3678 9.3077 29 11.6736 29 14.2389C29 16.8042 28.3678 19.1701 27.1036 21.3365C25.8393 23.5029 24.124 25.2183 21.9576 26.4825C19.7912 27.7468 17.4253 28.3789 14.86 28.3789C12.2946 28.3789 9.92877 27.7468 7.76235 26.4825C5.59594 25.2183 3.8806 23.5029 2.61635 21.3365C1.3521 19.1701 0.719971 16.8042 0.719971 14.2389C0.719971 11.6736 1.3521 9.3077 2.61635 7.14129C3.8806 4.97487 5.59594 3.25954 7.76235 1.99529ZM19.9047 9.69127C19.8802 9.70355 19.8219 9.76185 19.7298 9.86618C19.6377 9.97052 19.5549 10.0288 19.4812 10.0411C19.5058 10.0411 19.5334 10.0104 19.5641 9.94904C19.5948 9.88766 19.6255 9.82016 19.6562 9.74651C19.6868 9.67286 19.7083 9.6299 19.7206 9.61763C19.7942 9.53171 19.9293 9.43965 20.1256 9.34146C20.2975 9.26781 20.6166 9.19417 21.083 9.12052C21.5004 9.02233 21.8134 9.08983 22.022 9.32305C21.9975 9.2985 22.0558 9.21871 22.1969 9.0837C22.3381 8.94868 22.4271 8.87503 22.4639 8.86276C22.5007 8.83821 22.5928 8.81059 22.7401 8.77991C22.8874 8.74922 22.9794 8.70319 23.0162 8.64182L23.0531 8.23677C22.9058 8.24904 22.7984 8.20608 22.7309 8.10789C22.6634 8.0097 22.6235 7.88082 22.6112 7.72125C22.6112 7.7458 22.5744 7.7949 22.5007 7.86854C22.5007 7.78262 22.4731 7.73352 22.4179 7.72125C22.3626 7.70897 22.2921 7.71511 22.2061 7.73966C22.1202 7.76421 22.065 7.77035 22.0404 7.75807C21.9177 7.72125 21.8256 7.67522 21.7643 7.61999C21.7029 7.56475 21.6538 7.46349 21.617 7.3162C21.5802 7.16891 21.5556 7.07685 21.5433 7.04003C21.5188 6.97865 21.4605 6.91421 21.3684 6.8467C21.2764 6.7792 21.2181 6.71476 21.1935 6.65338C21.1812 6.62884 21.1659 6.59508 21.1475 6.55212C21.1291 6.50916 21.1107 6.46927 21.0923 6.43245C21.0738 6.39562 21.0493 6.36187 21.0186 6.33118C20.9879 6.3005 20.9542 6.28515 20.9173 6.28515C20.8805 6.28515 20.8376 6.31584 20.7885 6.37721C20.7394 6.43858 20.6933 6.49996 20.6504 6.56133C20.6074 6.6227 20.5798 6.65338 20.5675 6.65338C20.5307 6.62884 20.4939 6.61963 20.4571 6.62577C20.4202 6.6319 20.3926 6.63804 20.3742 6.64418C20.3558 6.65032 20.3282 6.66873 20.2914 6.69941C20.2545 6.7301 20.2238 6.75158 20.1993 6.76385C20.1625 6.7884 20.1103 6.80681 20.0428 6.81909C19.9753 6.83136 19.9231 6.84364 19.8863 6.85591C20.0704 6.79454 20.0643 6.72703 19.8679 6.65338C19.7451 6.60429 19.647 6.58587 19.5733 6.59815C19.6838 6.54905 19.7298 6.47541 19.7114 6.37721C19.693 6.27902 19.6408 6.1931 19.5549 6.11945H19.647C19.6347 6.07035 19.5825 6.01819 19.4905 5.96295C19.3984 5.90772 19.291 5.85555 19.1683 5.80646C19.0455 5.75736 18.9657 5.72054 18.9289 5.69599C18.8307 5.63462 18.622 5.57631 18.3029 5.52108C17.9838 5.46585 17.7813 5.46278 17.6953 5.51187C17.634 5.58552 17.6063 5.64996 17.6125 5.70519C17.6186 5.76043 17.6432 5.84635 17.6861 5.96295C17.7291 6.07956 17.7506 6.15627 17.7506 6.1931C17.7628 6.26674 17.7291 6.34653 17.6493 6.43245C17.5695 6.51837 17.5296 6.59201 17.5296 6.65338C17.5296 6.7393 17.6156 6.83443 17.7874 6.93876C17.9592 7.04309 18.0206 7.17504 17.9715 7.33461C17.9347 7.4328 17.8365 7.531 17.6769 7.62919C17.5174 7.72739 17.4192 7.80103 17.3823 7.85013C17.321 7.94832 17.3118 8.06186 17.3547 8.19074C17.3977 8.31962 17.4621 8.42089 17.548 8.49453C17.5726 8.51908 17.5818 8.54363 17.5757 8.56818C17.5695 8.59272 17.548 8.62034 17.5112 8.65103C17.4744 8.68171 17.4406 8.70626 17.41 8.72467C17.3793 8.74308 17.3394 8.76456 17.2903 8.78911L17.2351 8.82594C17.1 8.88731 16.9742 8.85048 16.8576 8.71547C16.741 8.58045 16.6582 8.42089 16.6091 8.23677C16.5231 7.92991 16.4249 7.7458 16.3145 7.68443C16.0322 7.58623 15.8542 7.59237 15.7805 7.70284C15.7192 7.54327 15.4675 7.38371 15.0257 7.22414C14.7188 7.11367 14.3629 7.08912 13.9578 7.15049C14.0315 7.13822 14.0315 7.04616 13.9578 6.87432C13.8719 6.69021 13.7553 6.61656 13.608 6.65338C13.6448 6.57974 13.6694 6.47234 13.6816 6.33118C13.6939 6.19003 13.7 6.10718 13.7 6.08263C13.7369 5.92306 13.8105 5.78191 13.921 5.65916C13.9333 5.64689 13.9762 5.59472 14.0499 5.50267C14.1235 5.41061 14.1818 5.32776 14.2248 5.25411C14.2677 5.18047 14.2708 5.14364 14.234 5.14364C14.6636 5.19274 14.9704 5.12523 15.1546 4.94112C15.2159 4.87975 15.2865 4.77542 15.3663 4.62812C15.4461 4.48083 15.5105 4.3765 15.5596 4.31513C15.6701 4.24148 15.756 4.20773 15.8174 4.21387C15.8787 4.22 15.9677 4.25376 16.0843 4.31513C16.2009 4.3765 16.2899 4.40719 16.3513 4.40719C16.5231 4.41946 16.6183 4.35195 16.6367 4.20466C16.6551 4.05737 16.6091 3.93463 16.4986 3.83643C16.6459 3.84871 16.6643 3.74437 16.5538 3.52344C16.4925 3.43752 16.4434 3.38228 16.4065 3.35773C16.2592 3.30864 16.0935 3.33932 15.9094 3.44979C15.8112 3.49889 15.8235 3.54799 15.9462 3.59708C15.934 3.58481 15.8757 3.64925 15.7713 3.7904C15.667 3.93156 15.5657 4.03896 15.4675 4.1126C15.3694 4.18625 15.2712 4.15556 15.173 4.02055C15.1607 4.00827 15.1269 3.92542 15.0717 3.77199C15.0165 3.61856 14.9582 3.53571 14.8968 3.52344C14.7986 3.52344 14.7004 3.61549 14.6022 3.79961C14.639 3.70141 14.5715 3.60936 14.3997 3.52344C14.2278 3.43752 14.0806 3.38842 13.9578 3.37614C14.191 3.22885 14.1419 3.06315 13.8105 2.87903C13.7246 2.82994 13.5988 2.79925 13.4331 2.78698C13.2674 2.7747 13.1477 2.79925 13.0741 2.86062C13.0127 2.94654 12.9789 3.01712 12.9728 3.07236C12.9667 3.12759 12.9973 3.17669 13.0649 3.21965C13.1324 3.26261 13.1968 3.29636 13.2582 3.32091C13.3195 3.34546 13.3901 3.37001 13.4699 3.39456C13.5497 3.4191 13.6019 3.43752 13.6264 3.44979C13.7982 3.57253 13.8473 3.65845 13.7737 3.70755C13.7491 3.71983 13.697 3.7413 13.6172 3.77199C13.5374 3.80268 13.4668 3.83029 13.4055 3.85484C13.3441 3.87939 13.3073 3.90394 13.295 3.92849C13.2582 3.97758 13.2582 4.06351 13.295 4.18625C13.3318 4.30899 13.3195 4.39491 13.2582 4.44401C13.1968 4.38264 13.1416 4.27524 13.0925 4.12181C13.0434 3.96838 13.0004 3.86712 12.9636 3.81802C13.0495 3.92849 12.8961 3.96531 12.5033 3.92849L12.3192 3.91008C12.2701 3.91008 12.1719 3.92235 12.0246 3.9469C11.8773 3.97145 11.7515 3.97758 11.6472 3.96531C11.5428 3.95304 11.46 3.90394 11.3986 3.81802C11.3495 3.71983 11.3495 3.59708 11.3986 3.44979C11.4109 3.40069 11.4354 3.38842 11.4723 3.41297C11.4232 3.37614 11.3557 3.31784 11.2697 3.23806C11.1838 3.15828 11.1224 3.10611 11.0856 3.08156C10.521 3.26568 9.94411 3.5173 9.35495 3.83643C9.42859 3.84871 9.50224 3.84257 9.57588 3.81802C9.63725 3.79347 9.71704 3.75358 9.81523 3.69835C9.91343 3.64311 9.9748 3.60936 9.99935 3.59708C10.4167 3.42524 10.6744 3.38228 10.7726 3.4682L10.8647 3.37614C11.0365 3.57253 11.1593 3.72596 11.2329 3.83643C11.147 3.78733 10.9629 3.7812 10.6806 3.81802C10.4351 3.89166 10.3001 3.96531 10.2755 4.03896C10.3614 4.18625 10.3921 4.29672 10.3676 4.37036C10.3185 4.33354 10.2479 4.27217 10.1558 4.18625C10.0638 4.10033 9.9748 4.03282 9.88888 3.98372C9.80296 3.93463 9.7109 3.90394 9.61271 3.89166C9.41632 3.89166 9.2813 3.8978 9.20765 3.91008C7.4156 4.89202 5.97337 6.25447 4.88096 7.99742C4.96688 8.08334 5.04053 8.13244 5.1019 8.14471C5.151 8.15699 5.18168 8.21222 5.19396 8.31042C5.20623 8.40861 5.22157 8.47612 5.23998 8.51294C5.2584 8.54976 5.32897 8.53135 5.45172 8.45771C5.56218 8.5559 5.5806 8.67251 5.50695 8.80753C5.51922 8.79525 5.78926 8.96095 6.31705 9.30463C6.55027 9.5133 6.67915 9.64218 6.70369 9.69127C6.74052 9.82629 6.67915 9.93676 6.51958 10.0227C6.50731 9.99813 6.45207 9.9429 6.35388 9.85698C6.25568 9.77106 6.20045 9.74651 6.18817 9.78333C6.15135 9.8447 6.15442 9.95824 6.19738 10.1239C6.24034 10.2896 6.30478 10.3664 6.3907 10.3541C6.30478 10.3541 6.24648 10.4523 6.21579 10.6487C6.18511 10.8451 6.16976 11.0629 6.16976 11.3023C6.16976 11.5416 6.16363 11.6859 6.15135 11.7349L6.18817 11.7534C6.15135 11.9007 6.18511 12.1124 6.28944 12.3886C6.39377 12.6647 6.52572 12.7844 6.68528 12.7476C6.52572 12.7844 6.64846 13.0483 7.05351 13.5393C7.12716 13.6375 7.17626 13.6927 7.2008 13.705C7.23763 13.7295 7.31127 13.7756 7.42174 13.8431C7.53221 13.9106 7.62427 13.9719 7.69791 14.0272C7.77156 14.0824 7.83293 14.1468 7.88203 14.2205C7.93113 14.2819 7.9925 14.42 8.06614 14.6348C8.13979 14.8496 8.22571 14.9938 8.3239 15.0674C8.29936 15.1411 8.35766 15.2638 8.49881 15.4356C8.63997 15.6075 8.70441 15.7486 8.69213 15.8591C8.67986 15.8591 8.66452 15.8653 8.6461 15.8775C8.62769 15.8898 8.61235 15.8959 8.60008 15.8959C8.6369 15.9819 8.73202 16.0678 8.88545 16.1537C9.03888 16.2396 9.13401 16.3194 9.17083 16.393C9.1831 16.4299 9.19538 16.4912 9.20765 16.5772C9.21993 16.6631 9.23834 16.7306 9.26289 16.7797C9.28744 16.8288 9.33653 16.8411 9.41018 16.8165C9.43473 16.571 9.28744 16.1905 8.9683 15.675C8.78419 15.3681 8.67986 15.1902 8.65531 15.1411C8.61849 15.0797 8.58473 14.9846 8.55405 14.8557C8.52336 14.7268 8.49574 14.6378 8.4712 14.5887C8.49574 14.5887 8.53257 14.5979 8.58166 14.6163C8.63076 14.6348 8.68293 14.6562 8.73816 14.6808C8.7934 14.7053 8.83942 14.7299 8.87625 14.7544C8.91307 14.779 8.92534 14.7974 8.91307 14.8097C8.87625 14.8956 8.88852 15.003 8.94989 15.1319C9.01126 15.2607 9.08491 15.3743 9.17083 15.4725C9.25675 15.5707 9.36108 15.6873 9.48383 15.8223C9.60657 15.9573 9.68021 16.0371 9.70476 16.0616C9.77841 16.1353 9.86433 16.255 9.96252 16.4207C10.0607 16.5864 10.0607 16.6692 9.96252 16.6692C10.073 16.6692 10.1957 16.7306 10.3308 16.8533C10.4658 16.9761 10.5701 17.0988 10.6437 17.2216C10.7051 17.3198 10.7542 17.4793 10.791 17.7003C10.8279 17.9212 10.8585 18.0685 10.8831 18.1421C10.9076 18.2281 10.9598 18.3109 11.0396 18.3907C11.1194 18.4705 11.1961 18.5288 11.2697 18.5656C11.3434 18.6024 11.4416 18.6515 11.5643 18.7129C11.6871 18.7743 11.7668 18.8172 11.8037 18.8418C11.865 18.8663 11.9786 18.9308 12.1443 19.0351C12.31 19.1394 12.4419 19.21 12.5401 19.2468C12.6629 19.2959 12.7611 19.3205 12.8347 19.3205C12.9084 19.3205 12.9973 19.3051 13.1017 19.2744C13.206 19.2438 13.2889 19.2223 13.3502 19.21C13.5343 19.1855 13.7123 19.2775 13.8842 19.4862C14.056 19.6948 14.1849 19.8237 14.2708 19.8728C14.7127 20.106 15.0502 20.1735 15.2834 20.0753C15.2589 20.0876 15.262 20.1336 15.2926 20.2134C15.3233 20.2932 15.3724 20.3883 15.4399 20.4988C15.5074 20.6093 15.5627 20.6983 15.6056 20.7658C15.6486 20.8333 15.6824 20.8854 15.7069 20.9223C15.7683 20.9959 15.8787 21.088 16.0383 21.1984C16.1979 21.3089 16.3083 21.401 16.3697 21.4746C16.4434 21.4255 16.4863 21.3703 16.4986 21.3089C16.4618 21.4071 16.5047 21.5298 16.6275 21.6771C16.7502 21.8244 16.8607 21.8858 16.9589 21.8612C17.1307 21.8244 17.2166 21.628 17.2166 21.2721C16.8361 21.4562 16.5354 21.3457 16.3145 20.9407C16.3145 20.9284 16.2991 20.8946 16.2684 20.8394C16.2378 20.7842 16.2132 20.732 16.1948 20.6829C16.1764 20.6338 16.161 20.5817 16.1488 20.5264C16.1365 20.4712 16.1365 20.4252 16.1488 20.3883C16.161 20.3515 16.1917 20.3331 16.2408 20.3331C16.3513 20.3331 16.4127 20.3116 16.4249 20.2687C16.4372 20.2257 16.4249 20.149 16.3881 20.0385C16.3513 19.928 16.3268 19.8483 16.3145 19.7992C16.3022 19.701 16.2347 19.5782 16.112 19.4309C15.9892 19.2836 15.9156 19.1916 15.891 19.1548C15.8296 19.2652 15.7314 19.3143 15.5964 19.3021C15.4614 19.2898 15.3632 19.2345 15.3018 19.1364C15.3018 19.1486 15.2926 19.1824 15.2742 19.2376C15.2558 19.2929 15.2466 19.3327 15.2466 19.3573C15.087 19.3573 14.995 19.3512 14.9704 19.3389C14.9827 19.3021 14.9981 19.1947 15.0165 19.0167C15.0349 18.8387 15.0564 18.7006 15.0809 18.6024C15.0932 18.5533 15.1269 18.4797 15.1822 18.3815C15.2374 18.2833 15.2834 18.1943 15.3203 18.1145C15.3571 18.0347 15.3816 17.958 15.3939 17.8844C15.4062 17.8107 15.3786 17.7524 15.3111 17.7095C15.2435 17.6665 15.1361 17.6512 14.9889 17.6634C14.7556 17.6757 14.5961 17.7985 14.5102 18.0317C14.4979 18.0685 14.4795 18.1329 14.4549 18.225C14.4304 18.317 14.3997 18.3876 14.3629 18.4367C14.326 18.4858 14.2708 18.5288 14.1972 18.5656C14.1112 18.6024 13.9639 18.6147 13.7553 18.6024C13.5466 18.5901 13.3993 18.5595 13.3134 18.5104C13.1538 18.4122 13.0158 18.2342 12.8992 17.9764C12.7825 17.7187 12.7242 17.4916 12.7242 17.2952C12.7242 17.1725 12.7396 17.0098 12.7703 16.8073C12.801 16.6048 12.8194 16.4513 12.8255 16.347C12.8316 16.2427 12.7979 16.0923 12.7242 15.8959C12.7611 15.8714 12.8163 15.8131 12.8899 15.721C12.9636 15.629 13.025 15.5645 13.0741 15.5277C13.0986 15.5154 13.1262 15.5062 13.1569 15.5001C13.1876 15.494 13.2152 15.494 13.2398 15.5001C13.2643 15.5062 13.2889 15.497 13.3134 15.4725C13.338 15.4479 13.3564 15.4111 13.3686 15.362C13.3564 15.3497 13.3318 15.3313 13.295 15.3068C13.2582 15.2699 13.2336 15.2515 13.2214 15.2515C13.3073 15.2884 13.4822 15.2792 13.7461 15.2239C14.01 15.1687 14.1787 15.1779 14.2524 15.2515C14.4365 15.3866 14.5715 15.3743 14.6574 15.2147C14.6574 15.2024 14.6421 15.1441 14.6114 15.0398C14.5807 14.9355 14.5777 14.8526 14.6022 14.7912C14.6636 15.1227 14.8416 15.1779 15.1361 14.957C15.173 14.9938 15.2681 15.0245 15.4215 15.049C15.575 15.0736 15.6824 15.1042 15.7437 15.1411C15.7805 15.1656 15.8235 15.1994 15.8726 15.2423C15.9217 15.2853 15.9555 15.3129 15.9739 15.3252C15.9923 15.3375 16.023 15.3344 16.0659 15.316C16.1089 15.2976 16.161 15.2577 16.2224 15.1963C16.3452 15.3681 16.4188 15.5154 16.4434 15.6382C16.5784 16.1291 16.695 16.3992 16.7932 16.4483C16.8791 16.4851 16.9466 16.4974 16.9957 16.4851C17.0448 16.4728 17.0724 16.4145 17.0786 16.3102C17.0847 16.2059 17.0847 16.1199 17.0786 16.0524C17.0724 15.9849 17.0632 15.9082 17.0509 15.8223L17.0325 15.675C17.0325 15.5645 17.0325 15.4541 17.0325 15.3436L17.0141 15.1963C16.83 15.1595 16.7165 15.0858 16.6735 14.9754C16.6305 14.8649 16.6397 14.7514 16.7011 14.6348C16.7625 14.5181 16.8545 14.4046 16.9773 14.2941C16.9896 14.2819 17.0387 14.2604 17.1246 14.2297C17.2105 14.199 17.3056 14.1591 17.41 14.11C17.5143 14.0609 17.591 14.0118 17.6401 13.9627C17.8979 13.7295 17.9899 13.5147 17.9163 13.3183C18.0022 13.3183 18.0697 13.2631 18.1188 13.1526C18.1065 13.1526 18.0758 13.1342 18.0267 13.0974C17.9776 13.0606 17.9316 13.0299 17.8887 13.0053C17.8457 12.9808 17.8181 12.9685 17.8058 12.9685C17.9163 12.9071 17.9285 12.8089 17.8426 12.6739C17.904 12.6371 17.95 12.5696 17.9807 12.4714C18.0114 12.3732 18.0574 12.3118 18.1188 12.2873C18.2293 12.4346 18.3581 12.4469 18.5054 12.3241C18.5914 12.2259 18.5975 12.1277 18.5239 12.0295C18.5852 11.9436 18.711 11.8792 18.9013 11.8362C19.0915 11.7932 19.2051 11.7349 19.2419 11.6613C19.3278 11.6859 19.3769 11.6736 19.3892 11.6245C19.4015 11.5754 19.4076 11.5017 19.4076 11.4035C19.4076 11.3053 19.426 11.2317 19.4628 11.1826C19.5119 11.1212 19.604 11.066 19.739 11.0169C19.874 10.9678 19.9538 10.9371 19.9784 10.9248L20.2914 10.7223C20.3282 10.6732 20.3282 10.6487 20.2914 10.6487C20.5123 10.6732 20.7025 10.6057 20.8621 10.4461C20.9848 10.3111 20.948 10.1884 20.7516 10.0779C20.7885 10.0043 20.7701 9.94597 20.6964 9.90301C20.6228 9.86005 20.5307 9.82629 20.4202 9.80174C20.4571 9.78947 20.5276 9.7864 20.632 9.79254C20.7363 9.79868 20.8007 9.78947 20.8253 9.76492C21.0094 9.64218 20.9664 9.54398 20.6964 9.47034C20.4877 9.40897 20.2238 9.48261 19.9047 9.69127ZM16.9036 25.8381C19.4321 25.3962 21.5863 24.2363 23.3661 22.3584C23.3292 22.3215 23.2525 22.2939 23.1359 22.2755C23.0193 22.2571 22.9426 22.2356 22.9058 22.2111C22.6848 22.1251 22.5375 22.076 22.4639 22.0638C22.4762 21.9779 22.4608 21.8981 22.4179 21.8244C22.3749 21.7508 22.3258 21.6955 22.2706 21.6587C22.2153 21.6219 22.1386 21.5728 22.0404 21.5114C21.9422 21.4501 21.8747 21.4071 21.8379 21.3826C21.8134 21.358 21.7704 21.3212 21.709 21.2721C21.6477 21.223 21.6047 21.1892 21.5802 21.1708C21.5556 21.1524 21.5096 21.1248 21.4421 21.088C21.3746 21.0511 21.3224 21.0389 21.2856 21.0511C21.2487 21.0634 21.1874 21.0696 21.1015 21.0696L21.0462 21.088C21.0094 21.1002 20.9756 21.1156 20.945 21.134C20.9143 21.1524 20.8805 21.1708 20.8437 21.1892C20.8069 21.2076 20.7823 21.2261 20.7701 21.2445C20.7578 21.2629 20.7578 21.2782 20.7701 21.2905C20.5123 21.0818 20.2914 20.9468 20.1072 20.8854C20.0459 20.8732 19.9784 20.8394 19.9047 20.7842C19.8311 20.7289 19.7666 20.686 19.7114 20.6553C19.6562 20.6246 19.5948 20.6154 19.5273 20.6277C19.4598 20.64 19.3892 20.6829 19.3155 20.7566C19.2542 20.8179 19.2174 20.91 19.2051 21.0327C19.1928 21.1555 19.1805 21.2353 19.1683 21.2721C19.0823 21.2107 19.0823 21.1033 19.1683 20.9499C19.2542 20.7965 19.2664 20.6829 19.2051 20.6093C19.1683 20.5356 19.1038 20.508 19.0118 20.5264C18.9197 20.5448 18.8461 20.5724 18.7908 20.6093C18.7356 20.6461 18.665 20.6983 18.5791 20.7658C18.4932 20.8333 18.4379 20.8732 18.4134 20.8854C18.3888 20.8977 18.3367 20.9315 18.2569 20.9867C18.1771 21.0419 18.1249 21.088 18.1004 21.1248C18.0636 21.1739 18.0267 21.2475 17.9899 21.3457C17.9531 21.4439 17.9224 21.5114 17.8979 21.5483C17.8733 21.4992 17.8027 21.4593 17.6861 21.4286C17.5695 21.3979 17.5112 21.3641 17.5112 21.3273C17.5358 21.4501 17.5603 21.6649 17.5849 21.9717C17.6094 22.2786 17.6401 22.5118 17.6769 22.6714C17.7628 23.0519 17.6892 23.3464 17.456 23.5551C17.1246 23.862 16.9466 24.1074 16.9221 24.2916C16.873 24.5616 16.9466 24.7212 17.143 24.7703C17.143 24.8562 17.0939 24.982 16.9957 25.1477C16.8975 25.3134 16.8545 25.4453 16.8668 25.5435C16.8668 25.6172 16.8791 25.7154 16.9036 25.8381Z" fill="#333333"/>
</svg>
