<svg width="24" height="15" viewBox="0 0 24 15" fill="none" xmlns="http://www.w3.org/2000/svg">
<path d="M23.5554 1.61855C23.7437 2.14255 23.1297 3.34612 21.7133 5.22924C21.5168 5.49124 21.2507 5.83921 20.915 6.27315C20.2763 7.0919 19.9079 7.62818 19.8097 7.88199C19.6705 8.21768 19.7278 8.54927 19.9816 8.87677C20.1208 9.04871 20.4524 9.3844 20.9764 9.88384H20.9887L21.0009 9.89612L21.0132 9.9084L21.0378 9.93296C22.1922 11.0055 22.9741 11.9102 23.3835 12.6471C23.4081 12.6881 23.4347 12.7392 23.4633 12.8006C23.492 12.862 23.5206 12.9705 23.5493 13.1261C23.578 13.2816 23.5759 13.4208 23.5432 13.5436C23.5104 13.6665 23.4081 13.779 23.2361 13.8814C23.0642 13.9837 22.8227 14.0349 22.5115 14.0349L19.3675 14.084C19.171 14.125 18.9418 14.1045 18.6798 14.0226C18.4178 13.9407 18.2049 13.8507 18.0412 13.7524L17.7955 13.6051C17.5499 13.4331 17.2633 13.1711 16.9358 12.8191C16.6083 12.467 16.3279 12.1497 16.0946 11.8673C15.8612 11.5848 15.6115 11.3474 15.3454 11.1549C15.0793 10.9625 14.848 10.8991 14.6515 10.9646C14.627 10.9728 14.5942 10.9871 14.5533 11.0076C14.5123 11.028 14.4427 11.0874 14.3445 11.1856C14.2463 11.2839 14.1582 11.4047 14.0805 11.5479C14.0027 11.6912 13.9331 11.9041 13.8717 12.1866C13.8103 12.469 13.7837 12.7863 13.7918 13.1384C13.7918 13.2612 13.7775 13.3738 13.7489 13.4761C13.7202 13.5784 13.6895 13.6542 13.6568 13.7033L13.6076 13.7647C13.4602 13.9203 13.2433 14.0103 12.9567 14.0349H11.5444C10.9631 14.0676 10.3654 14.0001 9.75131 13.8323C9.13725 13.6644 8.59892 13.4474 8.13633 13.1814C7.67373 12.9153 7.25208 12.6451 6.87136 12.3708C6.49064 12.0965 6.20203 11.8611 6.00553 11.6646L5.6985 11.3699C5.61663 11.288 5.50405 11.1652 5.36077 11.0014C5.21748 10.8377 4.92478 10.4651 4.48266 9.88384C4.04053 9.30252 3.60659 8.68437 3.18084 8.02937C2.75509 7.37437 2.25361 6.51059 1.67639 5.43802C1.09917 4.36546 0.564938 3.25196 0.0736875 2.09752C0.0245625 1.96652 0 1.85599 0 1.76593C0 1.67587 0.0122813 1.61037 0.0368438 1.56943L0.0859687 1.49574C0.208781 1.34018 0.442125 1.2624 0.786 1.2624L4.15106 1.23784C4.24931 1.25421 4.34347 1.28082 4.43353 1.31766C4.52359 1.35451 4.58909 1.38931 4.63003 1.42206L4.69144 1.4589C4.82244 1.54896 4.92069 1.67996 4.98619 1.8519C5.14994 2.26127 5.33825 2.68498 5.55113 3.12301C5.764 3.56104 5.93184 3.89468 6.05466 4.12393L6.25116 4.48009C6.48859 4.97134 6.71784 5.39709 6.93891 5.75734C7.15997 6.11759 7.35852 6.39801 7.53455 6.5986C7.71058 6.79919 7.88047 6.9568 8.04422 7.07143C8.20797 7.18605 8.34716 7.24337 8.46178 7.24337C8.57641 7.24337 8.68694 7.2229 8.79338 7.18196C8.80975 7.17377 8.83022 7.1533 8.85478 7.12055C8.87934 7.0878 8.92847 6.99774 9.00216 6.85037C9.07584 6.70299 9.13111 6.51059 9.16795 6.27315C9.2048 6.03571 9.24369 5.70412 9.28463 5.27837C9.32556 4.85262 9.32556 4.3409 9.28463 3.74321C9.26825 3.41571 9.23141 3.11687 9.17409 2.84668C9.11678 2.57649 9.05947 2.38818 9.00216 2.28174L8.92847 2.13437C8.72378 1.85599 8.37581 1.67996 7.88456 1.60627C7.77813 1.5899 7.79859 1.49165 7.94597 1.31152C8.08516 1.15596 8.24072 1.03315 8.41266 0.943087C8.84659 0.730211 9.825 0.631961 11.3479 0.648336C12.0192 0.656524 12.5719 0.709743 13.0058 0.807993C13.1696 0.84893 13.3067 0.904196 13.4173 0.973789C13.5278 1.04338 13.6117 1.14163 13.669 1.26854C13.7263 1.39545 13.7693 1.52644 13.798 1.66154C13.8266 1.79663 13.841 1.9829 13.841 2.22034C13.841 2.45777 13.8369 2.68293 13.8287 2.8958C13.8205 3.10868 13.8103 3.39729 13.798 3.76163C13.7857 4.12598 13.7796 4.46371 13.7796 4.77484C13.7796 4.8649 13.7755 5.03684 13.7673 5.29065C13.7591 5.54446 13.757 5.74096 13.7611 5.88015C13.7652 6.01934 13.7796 6.18513 13.8041 6.37754C13.8287 6.56994 13.8758 6.7296 13.9454 6.85651C14.015 6.98341 14.1071 7.08371 14.2217 7.1574C14.2872 7.17377 14.3568 7.19015 14.4305 7.20652C14.5042 7.2229 14.6106 7.17787 14.7498 7.07143C14.889 6.96499 15.0445 6.82376 15.2165 6.64773C15.3884 6.47169 15.6013 6.19741 15.8551 5.82488C16.1089 5.45235 16.3873 5.01227 16.6902 4.50465C17.1815 3.65315 17.6195 2.73205 18.0043 1.74137C18.0371 1.65949 18.078 1.58785 18.1271 1.52645C18.1763 1.46504 18.2213 1.42206 18.2622 1.39749L18.3113 1.36065C18.3277 1.35246 18.3482 1.34223 18.3728 1.32995C18.3973 1.31766 18.4505 1.30538 18.5324 1.2931C18.6143 1.28082 18.6962 1.27877 18.778 1.28696L22.315 1.2624C22.6343 1.22146 22.8963 1.2317 23.101 1.2931C23.3057 1.35451 23.4326 1.42206 23.4818 1.49574L23.5554 1.61855Z" fill="#F1F1F1"/>
</svg>
