<svg width="23" height="24" viewBox="0 0 23 24" fill="none" xmlns="http://www.w3.org/2000/svg">
<g clip-path="url(#clip0_187_10)">
<path d="M15.3599 12.5698C15.6057 12.4305 15.7286 12.2093 15.7286 11.9062C15.7286 11.6031 15.6057 11.3819 15.3599 11.2427L9.0685 7.31053C8.81455 7.14669 8.54831 7.1385 8.26979 7.28595C7.99945 7.43341 7.86429 7.66278 7.86429 7.97408V15.8384C7.86429 16.1497 7.99945 16.379 8.26979 16.5265C8.40086 16.592 8.52783 16.6248 8.65071 16.6248C8.81455 16.6248 8.95382 16.5838 9.0685 16.5019L15.3599 12.5698ZM22.0077 10.063C22.0077 10.063 22.0098 10.1736 22.0139 10.3948C22.018 10.616 22.02 11.1198 22.02 11.9062C22.02 12.6927 22.0159 13.307 22.0077 13.7494C21.9995 14.1918 21.9647 14.7509 21.9033 15.4267C21.8418 16.1026 21.7497 16.7067 21.6268 17.2392C21.4957 17.8372 21.2131 18.341 20.7789 18.7506C20.3447 19.1602 19.8368 19.3978 19.2552 19.4633C17.4366 19.6681 14.6882 19.7705 11.01 19.7705C7.33181 19.7705 4.5834 19.6681 2.76479 19.4633C2.18316 19.3978 1.67321 19.1602 1.23494 18.7506C0.796669 18.341 0.511998 17.8372 0.380926 17.2392C0.266239 16.7067 0.178175 16.1026 0.116735 15.4267C0.0552958 14.7509 0.0204799 14.1918 0.0122879 13.7494C0.00409598 13.307 0 12.6927 0 11.9062C0 11.1198 0.00409598 10.5054 0.0122879 10.063C0.0204799 9.62066 0.0552958 9.06156 0.116735 8.38573C0.178175 7.70989 0.270335 7.10573 0.393214 6.57325C0.524286 5.97524 0.806908 5.47143 1.24108 5.06184C1.67526 4.65224 2.18316 4.41467 2.76479 4.34914C4.5834 4.14434 7.33181 4.04194 11.01 4.04194C14.6882 4.04194 17.4366 4.14434 19.2552 4.34914C19.8368 4.41467 20.3468 4.65224 20.7851 5.06184C21.2233 5.47143 21.508 5.97524 21.6391 6.57325C21.7538 7.10573 21.8418 7.70989 21.9033 8.38573C21.9647 9.06156 21.9995 9.62066 22.0077 10.063Z" fill="#F1F1F1"/>
</g>
<defs>
<clipPath id="clip0_187_10">
<rect width="22.02" height="23" fill="white" transform="matrix(1 0 0 -1 0 23.6211)"/>
</clipPath>
</defs>
</svg>
